<?xml version="1.0" encoding="UTF-8" standalone="no"?>
<!DOCTYPE svg PUBLIC "-//W3C//DTD SVG 1.1//EN"
 "http://www.w3.org/Graphics/SVG/1.1/DTD/svg11.dtd">
<!-- Generated by graphviz version 2.43.0 (0)
 -->
<!-- Title: ast Pages: 1 -->
<svg width="2148pt" height="1988pt"
 viewBox="0.00 0.00 2147.50 1988.00" xmlns="http://www.w3.org/2000/svg" xmlns:xlink="http://www.w3.org/1999/xlink">
<g id="graph0" class="graph" transform="scale(1 1) rotate(0) translate(4 1984)">
<title>ast</title>
<polygon fill="white" stroke="transparent" points="-4,4 -4,-1984 2143.5,-1984 2143.5,4 -4,4"/>
<!-- N2 -->
<g id="node1" class="node">
<title>N2</title>
<polygon fill="none" stroke="black" points="393,-1764 318,-1764 318,-1728 393,-1728 393,-1764"/>
<text text-anchor="middle" x="355.5" y="-1742.3" font-family="Times,serif" font-size="14.00">DeclList</text>
</g>
<!-- N3 -->
<g id="node2" class="node">
<title>N3</title>
<polygon fill="none" stroke="black" points="388,-1656 307,-1656 307,-1620 388,-1620 388,-1656"/>
<text text-anchor="middle" x="347.5" y="-1634.3" font-family="Times,serif" font-size="14.00">Funcdecl</text>
</g>
<!-- N2&#45;&gt;N3 -->
<g id="edge79" class="edge">
<title>N2&#45;&gt;N3</title>
<path fill="none" stroke="black" d="M354.21,-1727.97C352.96,-1711.38 351.04,-1685.88 349.57,-1666.43"/>
<polygon fill="black" stroke="black" points="353.05,-1666.05 348.81,-1656.34 346.07,-1666.58 353.05,-1666.05"/>
</g>
<!-- N4 -->
<g id="node3" class="node">
<title>N4</title>
<polygon fill="none" stroke="black" points="99,-1548 0,-1548 0,-1512 99,-1512 99,-1548"/>
<text text-anchor="middle" x="49.5" y="-1526.3" font-family="Times,serif" font-size="14.00">isInBonjour</text>
</g>
<!-- N3&#45;&gt;N4 -->
<g id="edge1" class="edge">
<title>N3&#45;&gt;N4</title>
<path fill="none" stroke="black" d="M306.69,-1622.48C254.97,-1604.09 165.53,-1572.27 106.93,-1551.43"/>
<polygon fill="black" stroke="black" points="108.04,-1548.11 97.45,-1548.06 105.7,-1554.7 108.04,-1548.11"/>
</g>
<!-- N5 -->
<g id="node4" class="node">
<title>N5</title>
<polygon fill="none" stroke="black" points="248,-1548 171,-1548 171,-1512 248,-1512 248,-1548"/>
<text text-anchor="middle" x="209.5" y="-1526.3" font-family="Times,serif" font-size="14.00">fielddecl</text>
</g>
<!-- N3&#45;&gt;N5 -->
<g id="edge4" class="edge">
<title>N3&#45;&gt;N5</title>
<path fill="none" stroke="black" d="M325.33,-1619.97C302.23,-1602.23 265.87,-1574.3 240.06,-1554.47"/>
<polygon fill="black" stroke="black" points="242.14,-1551.66 232.08,-1548.34 237.87,-1557.21 242.14,-1551.66"/>
</g>
<!-- N7 -->
<g id="node6" class="node">
<title>N7</title>
<polygon fill="none" stroke="black" points="374.5,-1548 320.5,-1548 320.5,-1512 374.5,-1512 374.5,-1548"/>
<text text-anchor="middle" x="347.5" y="-1526.3" font-family="Times,serif" font-size="14.00">void</text>
</g>
<!-- N3&#45;&gt;N7 -->
<g id="edge5" class="edge">
<title>N3&#45;&gt;N7</title>
<path fill="none" stroke="black" d="M347.5,-1619.97C347.5,-1603.38 347.5,-1577.88 347.5,-1558.43"/>
<polygon fill="black" stroke="black" points="351,-1558.34 347.5,-1548.34 344,-1558.34 351,-1558.34"/>
</g>
<!-- N8 -->
<g id="node7" class="node">
<title>N8</title>
<polygon fill="none" stroke="black" points="540,-1548 447,-1548 447,-1512 540,-1512 540,-1548"/>
<text text-anchor="middle" x="493.5" y="-1526.3" font-family="Times,serif" font-size="14.00">IfThenElse</text>
</g>
<!-- N3&#45;&gt;N8 -->
<g id="edge78" class="edge">
<title>N3&#45;&gt;N8</title>
<path fill="none" stroke="black" d="M370.96,-1619.97C395.4,-1602.23 433.86,-1574.3 461.17,-1554.47"/>
<polygon fill="black" stroke="black" points="463.58,-1557.05 469.62,-1548.34 459.47,-1551.38 463.58,-1557.05"/>
</g>
<!-- N6 -->
<g id="node5" class="node">
<title>N6</title>
<polygon fill="none" stroke="black" points="110,-1440 51,-1440 51,-1404 110,-1404 110,-1440"/>
<text text-anchor="middle" x="80.5" y="-1418.3" font-family="Times,serif" font-size="14.00">string</text>
</g>
<!-- N5&#45;&gt;N6 -->
<g id="edge3" class="edge">
<title>N5&#45;&gt;N6</title>
<path fill="none" stroke="black" d="M188.77,-1511.97C167.27,-1494.3 133.49,-1466.54 109.38,-1446.73"/>
<polygon fill="black" stroke="black" points="111.55,-1443.99 101.6,-1440.34 107.11,-1449.39 111.55,-1443.99"/>
</g>
<!-- c -->
<g id="node86" class="node">
<title>c</title>
<ellipse fill="none" stroke="black" cx="209.5" cy="-1422" rx="27" ry="18"/>
<text text-anchor="middle" x="209.5" y="-1418.3" font-family="Times,serif" font-size="14.00">c</text>
</g>
<!-- N5&#45;&gt;c -->
<g id="edge2" class="edge">
<title>N5&#45;&gt;c</title>
<path fill="none" stroke="black" d="M209.5,-1511.97C209.5,-1495.38 209.5,-1469.88 209.5,-1450.43"/>
<polygon fill="black" stroke="black" points="213,-1450.34 209.5,-1440.34 206,-1450.34 213,-1450.34"/>
</g>
<!-- N9 -->
<g id="node13" class="node">
<title>N9</title>
<polygon fill="none" stroke="black" points="394.5,-1440 308.5,-1440 308.5,-1404 394.5,-1404 394.5,-1440"/>
<text text-anchor="middle" x="351.5" y="-1418.3" font-family="Times,serif" font-size="14.00">Condition</text>
</g>
<!-- N8&#45;&gt;N9 -->
<g id="edge11" class="edge">
<title>N8&#45;&gt;N9</title>
<path fill="none" stroke="black" d="M470.69,-1511.97C446.92,-1494.23 409.5,-1466.3 382.94,-1446.47"/>
<polygon fill="black" stroke="black" points="384.84,-1443.52 374.73,-1440.34 380.65,-1449.13 384.84,-1443.52"/>
</g>
<!-- N15 -->
<g id="node17" class="node">
<title>N15</title>
<polygon fill="none" stroke="black" points="520.5,-1440 466.5,-1440 466.5,-1404 520.5,-1404 520.5,-1440"/>
<text text-anchor="middle" x="493.5" y="-1418.3" font-family="Times,serif" font-size="14.00">Then</text>
</g>
<!-- N8&#45;&gt;N15 -->
<g id="edge15" class="edge">
<title>N8&#45;&gt;N15</title>
<path fill="none" stroke="black" d="M493.5,-1511.97C493.5,-1495.38 493.5,-1469.88 493.5,-1450.43"/>
<polygon fill="black" stroke="black" points="497,-1450.34 493.5,-1440.34 490,-1450.34 497,-1450.34"/>
</g>
<!-- N19 -->
<g id="node79" class="node">
<title>N19</title>
<polygon fill="none" stroke="black" points="678.5,-1440 592.5,-1440 592.5,-1404 678.5,-1404 678.5,-1440"/>
<text text-anchor="middle" x="635.5" y="-1418.3" font-family="Times,serif" font-size="14.00">Condition</text>
</g>
<!-- N8&#45;&gt;N19 -->
<g id="edge77" class="edge">
<title>N8&#45;&gt;N19</title>
<path fill="none" stroke="black" d="M516.31,-1511.97C540.08,-1494.23 577.5,-1466.3 604.06,-1446.47"/>
<polygon fill="black" stroke="black" points="606.35,-1449.13 612.27,-1440.34 602.16,-1443.52 606.35,-1449.13"/>
</g>
<!-- N11 -->
<g id="node8" class="node">
<title>N11</title>
<polygon fill="none" stroke="black" points="248.5,-1224 184.5,-1224 184.5,-1188 248.5,-1188 248.5,-1224"/>
<text text-anchor="middle" x="216.5" y="-1202.3" font-family="Times,serif" font-size="14.00">Lvalue</text>
</g>
<!-- N12 -->
<g id="node9" class="node">
<title>N12</title>
<polygon fill="none" stroke="black" points="243.5,-1116 189.5,-1116 189.5,-1080 243.5,-1080 243.5,-1116"/>
<text text-anchor="middle" x="216.5" y="-1094.3" font-family="Times,serif" font-size="14.00">c</text>
</g>
<!-- N11&#45;&gt;N12 -->
<g id="edge6" class="edge">
<title>N11&#45;&gt;N12</title>
<path fill="none" stroke="black" d="M216.5,-1187.97C216.5,-1171.38 216.5,-1145.88 216.5,-1126.43"/>
<polygon fill="black" stroke="black" points="220,-1126.34 216.5,-1116.34 213,-1126.34 220,-1126.34"/>
</g>
<!-- N13 -->
<g id="node10" class="node">
<title>N13</title>
<polygon fill="none" stroke="black" points="384.5,-1224 320.5,-1224 320.5,-1188 384.5,-1188 384.5,-1224"/>
<text text-anchor="middle" x="352.5" y="-1202.3" font-family="Times,serif" font-size="14.00">Lvalue</text>
</g>
<!-- N14 -->
<g id="node11" class="node">
<title>N14</title>
<polygon fill="none" stroke="black" points="379.5,-1116 325.5,-1116 325.5,-1080 379.5,-1080 379.5,-1116"/>
<text text-anchor="middle" x="352.5" y="-1094.3" font-family="Times,serif" font-size="14.00">B</text>
</g>
<!-- N13&#45;&gt;N14 -->
<g id="edge7" class="edge">
<title>N13&#45;&gt;N14</title>
<path fill="none" stroke="black" d="M352.5,-1187.97C352.5,-1171.38 352.5,-1145.88 352.5,-1126.43"/>
<polygon fill="black" stroke="black" points="356,-1126.34 352.5,-1116.34 349,-1126.34 356,-1126.34"/>
</g>
<!-- N10 -->
<g id="node12" class="node">
<title>N10</title>
<polygon fill="none" stroke="black" points="378.5,-1332 324.5,-1332 324.5,-1296 378.5,-1296 378.5,-1332"/>
<text text-anchor="middle" x="351.5" y="-1310.3" font-family="Times,serif" font-size="14.00">=</text>
</g>
<!-- N10&#45;&gt;N11 -->
<g id="edge8" class="edge">
<title>N10&#45;&gt;N11</title>
<path fill="none" stroke="black" d="M329.81,-1295.97C307.31,-1278.3 271.95,-1250.54 246.72,-1230.73"/>
<polygon fill="black" stroke="black" points="248.61,-1227.76 238.58,-1224.34 244.29,-1233.27 248.61,-1227.76"/>
</g>
<!-- N10&#45;&gt;N13 -->
<g id="edge9" class="edge">
<title>N10&#45;&gt;N13</title>
<path fill="none" stroke="black" d="M351.66,-1295.97C351.82,-1279.38 352.06,-1253.88 352.24,-1234.43"/>
<polygon fill="black" stroke="black" points="355.74,-1234.37 352.34,-1224.34 348.74,-1234.31 355.74,-1234.37"/>
</g>
<!-- N9&#45;&gt;N10 -->
<g id="edge10" class="edge">
<title>N9&#45;&gt;N10</title>
<path fill="none" stroke="black" d="M351.5,-1403.97C351.5,-1387.38 351.5,-1361.88 351.5,-1342.43"/>
<polygon fill="black" stroke="black" points="355,-1342.34 351.5,-1332.34 348,-1342.34 355,-1342.34"/>
</g>
<!-- N17 -->
<g id="node14" class="node">
<title>N17</title>
<polygon fill="none" stroke="black" points="528,-1224 457,-1224 457,-1188 528,-1188 528,-1224"/>
<text text-anchor="middle" x="492.5" y="-1202.3" font-family="Times,serif" font-size="14.00">exprlist</text>
</g>
<!-- N18 -->
<g id="node15" class="node">
<title>N18</title>
<polygon fill="none" stroke="black" points="519.5,-1116 465.5,-1116 465.5,-1080 519.5,-1080 519.5,-1116"/>
<text text-anchor="middle" x="492.5" y="-1094.3" font-family="Times,serif" font-size="14.00">1</text>
</g>
<!-- N17&#45;&gt;N18 -->
<g id="edge12" class="edge">
<title>N17&#45;&gt;N18</title>
<path fill="none" stroke="black" d="M492.5,-1187.97C492.5,-1171.38 492.5,-1145.88 492.5,-1126.43"/>
<polygon fill="black" stroke="black" points="496,-1126.34 492.5,-1116.34 489,-1126.34 496,-1126.34"/>
</g>
<!-- N16 -->
<g id="node16" class="node">
<title>N16</title>
<polygon fill="none" stroke="black" points="525.5,-1332 459.5,-1332 459.5,-1296 525.5,-1296 525.5,-1332"/>
<text text-anchor="middle" x="492.5" y="-1310.3" font-family="Times,serif" font-size="14.00">Return</text>
</g>
<!-- N16&#45;&gt;N17 -->
<g id="edge13" class="edge">
<title>N16&#45;&gt;N17</title>
<path fill="none" stroke="black" d="M492.5,-1295.97C492.5,-1279.38 492.5,-1253.88 492.5,-1234.43"/>
<polygon fill="black" stroke="black" points="496,-1234.34 492.5,-1224.34 489,-1234.34 496,-1234.34"/>
</g>
<!-- N15&#45;&gt;N16 -->
<g id="edge14" class="edge">
<title>N15&#45;&gt;N16</title>
<path fill="none" stroke="black" d="M493.34,-1403.97C493.18,-1387.38 492.94,-1361.88 492.76,-1342.43"/>
<polygon fill="black" stroke="black" points="496.26,-1342.31 492.66,-1332.34 489.26,-1342.37 496.26,-1342.31"/>
</g>
<!-- N20 -->
<g id="node18" class="node">
<title>N20</title>
<polygon fill="none" stroke="black" points="761,-1332 668,-1332 668,-1296 761,-1296 761,-1332"/>
<text text-anchor="middle" x="714.5" y="-1310.3" font-family="Times,serif" font-size="14.00">IfThenElse</text>
</g>
<!-- N21 -->
<g id="node24" class="node">
<title>N21</title>
<polygon fill="none" stroke="black" points="686.5,-1224 600.5,-1224 600.5,-1188 686.5,-1188 686.5,-1224"/>
<text text-anchor="middle" x="643.5" y="-1202.3" font-family="Times,serif" font-size="14.00">Condition</text>
</g>
<!-- N20&#45;&gt;N21 -->
<g id="edge21" class="edge">
<title>N20&#45;&gt;N21</title>
<path fill="none" stroke="black" d="M703.09,-1295.97C691.67,-1278.92 673.95,-1252.46 660.8,-1232.82"/>
<polygon fill="black" stroke="black" points="663.59,-1230.7 655.11,-1224.34 657.77,-1234.6 663.59,-1230.7"/>
</g>
<!-- N27 -->
<g id="node28" class="node">
<title>N27</title>
<polygon fill="none" stroke="black" points="812.5,-1224 758.5,-1224 758.5,-1188 812.5,-1188 812.5,-1224"/>
<text text-anchor="middle" x="785.5" y="-1202.3" font-family="Times,serif" font-size="14.00">Then</text>
</g>
<!-- N20&#45;&gt;N27 -->
<g id="edge25" class="edge">
<title>N20&#45;&gt;N27</title>
<path fill="none" stroke="black" d="M725.91,-1295.97C737.33,-1278.92 755.05,-1252.46 768.2,-1232.82"/>
<polygon fill="black" stroke="black" points="771.23,-1234.6 773.89,-1224.34 765.41,-1230.7 771.23,-1234.6"/>
</g>
<!-- N31 -->
<g id="node78" class="node">
<title>N31</title>
<polygon fill="none" stroke="black" points="1010.5,-1224 924.5,-1224 924.5,-1188 1010.5,-1188 1010.5,-1224"/>
<text text-anchor="middle" x="967.5" y="-1202.3" font-family="Times,serif" font-size="14.00">Condition</text>
</g>
<!-- N20&#45;&gt;N31 -->
<g id="edge75" class="edge">
<title>N20&#45;&gt;N31</title>
<path fill="none" stroke="black" d="M755.15,-1295.97C799.19,-1277.52 869.51,-1248.05 917.05,-1228.14"/>
<polygon fill="black" stroke="black" points="918.66,-1231.26 926.53,-1224.16 915.96,-1224.8 918.66,-1231.26"/>
</g>
<!-- N23 -->
<g id="node19" class="node">
<title>N23</title>
<polygon fill="none" stroke="black" points="540.5,-1008 476.5,-1008 476.5,-972 540.5,-972 540.5,-1008"/>
<text text-anchor="middle" x="508.5" y="-986.3" font-family="Times,serif" font-size="14.00">Lvalue</text>
</g>
<!-- N24 -->
<g id="node20" class="node">
<title>N24</title>
<polygon fill="none" stroke="black" points="535.5,-900 481.5,-900 481.5,-864 535.5,-864 535.5,-900"/>
<text text-anchor="middle" x="508.5" y="-878.3" font-family="Times,serif" font-size="14.00">c</text>
</g>
<!-- N23&#45;&gt;N24 -->
<g id="edge16" class="edge">
<title>N23&#45;&gt;N24</title>
<path fill="none" stroke="black" d="M508.5,-971.97C508.5,-955.38 508.5,-929.88 508.5,-910.43"/>
<polygon fill="black" stroke="black" points="512,-910.34 508.5,-900.34 505,-910.34 512,-910.34"/>
</g>
<!-- N25 -->
<g id="node21" class="node">
<title>N25</title>
<polygon fill="none" stroke="black" points="676.5,-1008 612.5,-1008 612.5,-972 676.5,-972 676.5,-1008"/>
<text text-anchor="middle" x="644.5" y="-986.3" font-family="Times,serif" font-size="14.00">Lvalue</text>
</g>
<!-- N26 -->
<g id="node22" class="node">
<title>N26</title>
<polygon fill="none" stroke="black" points="671.5,-900 617.5,-900 617.5,-864 671.5,-864 671.5,-900"/>
<text text-anchor="middle" x="644.5" y="-878.3" font-family="Times,serif" font-size="14.00">o</text>
</g>
<!-- N25&#45;&gt;N26 -->
<g id="edge17" class="edge">
<title>N25&#45;&gt;N26</title>
<path fill="none" stroke="black" d="M644.5,-971.97C644.5,-955.38 644.5,-929.88 644.5,-910.43"/>
<polygon fill="black" stroke="black" points="648,-910.34 644.5,-900.34 641,-910.34 648,-910.34"/>
</g>
<!-- N22 -->
<g id="node23" class="node">
<title>N22</title>
<polygon fill="none" stroke="black" points="670.5,-1116 616.5,-1116 616.5,-1080 670.5,-1080 670.5,-1116"/>
<text text-anchor="middle" x="643.5" y="-1094.3" font-family="Times,serif" font-size="14.00">=</text>
</g>
<!-- N22&#45;&gt;N23 -->
<g id="edge18" class="edge">
<title>N22&#45;&gt;N23</title>
<path fill="none" stroke="black" d="M621.81,-1079.97C599.31,-1062.3 563.95,-1034.54 538.72,-1014.73"/>
<polygon fill="black" stroke="black" points="540.61,-1011.76 530.58,-1008.34 536.29,-1017.27 540.61,-1011.76"/>
</g>
<!-- N22&#45;&gt;N25 -->
<g id="edge19" class="edge">
<title>N22&#45;&gt;N25</title>
<path fill="none" stroke="black" d="M643.66,-1079.97C643.82,-1063.38 644.06,-1037.88 644.24,-1018.43"/>
<polygon fill="black" stroke="black" points="647.74,-1018.37 644.34,-1008.34 640.74,-1018.31 647.74,-1018.37"/>
</g>
<!-- N21&#45;&gt;N22 -->
<g id="edge20" class="edge">
<title>N21&#45;&gt;N22</title>
<path fill="none" stroke="black" d="M643.5,-1187.97C643.5,-1171.38 643.5,-1145.88 643.5,-1126.43"/>
<polygon fill="black" stroke="black" points="647,-1126.34 643.5,-1116.34 640,-1126.34 647,-1126.34"/>
</g>
<!-- N29 -->
<g id="node25" class="node">
<title>N29</title>
<polygon fill="none" stroke="black" points="821,-1008 750,-1008 750,-972 821,-972 821,-1008"/>
<text text-anchor="middle" x="785.5" y="-986.3" font-family="Times,serif" font-size="14.00">exprlist</text>
</g>
<!-- N30 -->
<g id="node26" class="node">
<title>N30</title>
<polygon fill="none" stroke="black" points="812.5,-900 758.5,-900 758.5,-864 812.5,-864 812.5,-900"/>
<text text-anchor="middle" x="785.5" y="-878.3" font-family="Times,serif" font-size="14.00">1</text>
</g>
<!-- N29&#45;&gt;N30 -->
<g id="edge22" class="edge">
<title>N29&#45;&gt;N30</title>
<path fill="none" stroke="black" d="M785.5,-971.97C785.5,-955.38 785.5,-929.88 785.5,-910.43"/>
<polygon fill="black" stroke="black" points="789,-910.34 785.5,-900.34 782,-910.34 789,-910.34"/>
</g>
<!-- N28 -->
<g id="node27" class="node">
<title>N28</title>
<polygon fill="none" stroke="black" points="818.5,-1116 752.5,-1116 752.5,-1080 818.5,-1080 818.5,-1116"/>
<text text-anchor="middle" x="785.5" y="-1094.3" font-family="Times,serif" font-size="14.00">Return</text>
</g>
<!-- N28&#45;&gt;N29 -->
<g id="edge23" class="edge">
<title>N28&#45;&gt;N29</title>
<path fill="none" stroke="black" d="M785.5,-1079.97C785.5,-1063.38 785.5,-1037.88 785.5,-1018.43"/>
<polygon fill="black" stroke="black" points="789,-1018.34 785.5,-1008.34 782,-1018.34 789,-1018.34"/>
</g>
<!-- N27&#45;&gt;N28 -->
<g id="edge24" class="edge">
<title>N27&#45;&gt;N28</title>
<path fill="none" stroke="black" d="M785.5,-1187.97C785.5,-1171.38 785.5,-1145.88 785.5,-1126.43"/>
<polygon fill="black" stroke="black" points="789,-1126.34 785.5,-1116.34 782,-1126.34 789,-1126.34"/>
</g>
<!-- N32 -->
<g id="node29" class="node">
<title>N32</title>
<polygon fill="none" stroke="black" points="1054,-1116 961,-1116 961,-1080 1054,-1080 1054,-1116"/>
<text text-anchor="middle" x="1007.5" y="-1094.3" font-family="Times,serif" font-size="14.00">IfThenElse</text>
</g>
<!-- N33 -->
<g id="node35" class="node">
<title>N33</title>
<polygon fill="none" stroke="black" points="979.5,-1008 893.5,-1008 893.5,-972 979.5,-972 979.5,-1008"/>
<text text-anchor="middle" x="936.5" y="-986.3" font-family="Times,serif" font-size="14.00">Condition</text>
</g>
<!-- N32&#45;&gt;N33 -->
<g id="edge31" class="edge">
<title>N32&#45;&gt;N33</title>
<path fill="none" stroke="black" d="M996.09,-1079.97C984.67,-1062.92 966.95,-1036.46 953.8,-1016.82"/>
<polygon fill="black" stroke="black" points="956.59,-1014.7 948.11,-1008.34 950.77,-1018.6 956.59,-1014.7"/>
</g>
<!-- N39 -->
<g id="node39" class="node">
<title>N39</title>
<polygon fill="none" stroke="black" points="1105.5,-1008 1051.5,-1008 1051.5,-972 1105.5,-972 1105.5,-1008"/>
<text text-anchor="middle" x="1078.5" y="-986.3" font-family="Times,serif" font-size="14.00">Then</text>
</g>
<!-- N32&#45;&gt;N39 -->
<g id="edge35" class="edge">
<title>N32&#45;&gt;N39</title>
<path fill="none" stroke="black" d="M1018.91,-1079.97C1030.33,-1062.92 1048.05,-1036.46 1061.2,-1016.82"/>
<polygon fill="black" stroke="black" points="1064.23,-1018.6 1066.89,-1008.34 1058.41,-1014.7 1064.23,-1018.6"/>
</g>
<!-- N43 -->
<g id="node77" class="node">
<title>N43</title>
<polygon fill="none" stroke="black" points="1303.5,-1008 1217.5,-1008 1217.5,-972 1303.5,-972 1303.5,-1008"/>
<text text-anchor="middle" x="1260.5" y="-986.3" font-family="Times,serif" font-size="14.00">Condition</text>
</g>
<!-- N32&#45;&gt;N43 -->
<g id="edge73" class="edge">
<title>N32&#45;&gt;N43</title>
<path fill="none" stroke="black" d="M1048.15,-1079.97C1092.19,-1061.52 1162.51,-1032.05 1210.05,-1012.14"/>
<polygon fill="black" stroke="black" points="1211.66,-1015.26 1219.53,-1008.16 1208.96,-1008.8 1211.66,-1015.26"/>
</g>
<!-- N35 -->
<g id="node30" class="node">
<title>N35</title>
<polygon fill="none" stroke="black" points="832.5,-792 768.5,-792 768.5,-756 832.5,-756 832.5,-792"/>
<text text-anchor="middle" x="800.5" y="-770.3" font-family="Times,serif" font-size="14.00">Lvalue</text>
</g>
<!-- N36 -->
<g id="node31" class="node">
<title>N36</title>
<polygon fill="none" stroke="black" points="827.5,-684 773.5,-684 773.5,-648 827.5,-648 827.5,-684"/>
<text text-anchor="middle" x="800.5" y="-662.3" font-family="Times,serif" font-size="14.00">c</text>
</g>
<!-- N35&#45;&gt;N36 -->
<g id="edge26" class="edge">
<title>N35&#45;&gt;N36</title>
<path fill="none" stroke="black" d="M800.5,-755.97C800.5,-739.38 800.5,-713.88 800.5,-694.43"/>
<polygon fill="black" stroke="black" points="804,-694.34 800.5,-684.34 797,-694.34 804,-694.34"/>
</g>
<!-- N37 -->
<g id="node32" class="node">
<title>N37</title>
<polygon fill="none" stroke="black" points="968.5,-792 904.5,-792 904.5,-756 968.5,-756 968.5,-792"/>
<text text-anchor="middle" x="936.5" y="-770.3" font-family="Times,serif" font-size="14.00">Lvalue</text>
</g>
<!-- N38 -->
<g id="node33" class="node">
<title>N38</title>
<polygon fill="none" stroke="black" points="963.5,-684 909.5,-684 909.5,-648 963.5,-648 963.5,-684"/>
<text text-anchor="middle" x="936.5" y="-662.3" font-family="Times,serif" font-size="14.00">n</text>
</g>
<!-- N37&#45;&gt;N38 -->
<g id="edge27" class="edge">
<title>N37&#45;&gt;N38</title>
<path fill="none" stroke="black" d="M936.5,-755.97C936.5,-739.38 936.5,-713.88 936.5,-694.43"/>
<polygon fill="black" stroke="black" points="940,-694.34 936.5,-684.34 933,-694.34 940,-694.34"/>
</g>
<!-- N34 -->
<g id="node34" class="node">
<title>N34</title>
<polygon fill="none" stroke="black" points="963.5,-900 909.5,-900 909.5,-864 963.5,-864 963.5,-900"/>
<text text-anchor="middle" x="936.5" y="-878.3" font-family="Times,serif" font-size="14.00">=</text>
</g>
<!-- N34&#45;&gt;N35 -->
<g id="edge28" class="edge">
<title>N34&#45;&gt;N35</title>
<path fill="none" stroke="black" d="M914.65,-863.97C891.98,-846.3 856.36,-818.54 830.94,-798.73"/>
<polygon fill="black" stroke="black" points="832.79,-795.73 822.75,-792.34 828.48,-801.25 832.79,-795.73"/>
</g>
<!-- N34&#45;&gt;N37 -->
<g id="edge29" class="edge">
<title>N34&#45;&gt;N37</title>
<path fill="none" stroke="black" d="M936.5,-863.97C936.5,-847.38 936.5,-821.88 936.5,-802.43"/>
<polygon fill="black" stroke="black" points="940,-802.34 936.5,-792.34 933,-802.34 940,-802.34"/>
</g>
<!-- N33&#45;&gt;N34 -->
<g id="edge30" class="edge">
<title>N33&#45;&gt;N34</title>
<path fill="none" stroke="black" d="M936.5,-971.97C936.5,-955.38 936.5,-929.88 936.5,-910.43"/>
<polygon fill="black" stroke="black" points="940,-910.34 936.5,-900.34 933,-910.34 940,-910.34"/>
</g>
<!-- N41 -->
<g id="node36" class="node">
<title>N41</title>
<polygon fill="none" stroke="black" points="1113,-792 1042,-792 1042,-756 1113,-756 1113,-792"/>
<text text-anchor="middle" x="1077.5" y="-770.3" font-family="Times,serif" font-size="14.00">exprlist</text>
</g>
<!-- N42 -->
<g id="node37" class="node">
<title>N42</title>
<polygon fill="none" stroke="black" points="1104.5,-684 1050.5,-684 1050.5,-648 1104.5,-648 1104.5,-684"/>
<text text-anchor="middle" x="1077.5" y="-662.3" font-family="Times,serif" font-size="14.00">1</text>
</g>
<!-- N41&#45;&gt;N42 -->
<g id="edge32" class="edge">
<title>N41&#45;&gt;N42</title>
<path fill="none" stroke="black" d="M1077.5,-755.97C1077.5,-739.38 1077.5,-713.88 1077.5,-694.43"/>
<polygon fill="black" stroke="black" points="1081,-694.34 1077.5,-684.34 1074,-694.34 1081,-694.34"/>
</g>
<!-- N40 -->
<g id="node38" class="node">
<title>N40</title>
<polygon fill="none" stroke="black" points="1110.5,-900 1044.5,-900 1044.5,-864 1110.5,-864 1110.5,-900"/>
<text text-anchor="middle" x="1077.5" y="-878.3" font-family="Times,serif" font-size="14.00">Return</text>
</g>
<!-- N40&#45;&gt;N41 -->
<g id="edge33" class="edge">
<title>N40&#45;&gt;N41</title>
<path fill="none" stroke="black" d="M1077.5,-863.97C1077.5,-847.38 1077.5,-821.88 1077.5,-802.43"/>
<polygon fill="black" stroke="black" points="1081,-802.34 1077.5,-792.34 1074,-802.34 1081,-802.34"/>
</g>
<!-- N39&#45;&gt;N40 -->
<g id="edge34" class="edge">
<title>N39&#45;&gt;N40</title>
<path fill="none" stroke="black" d="M1078.34,-971.97C1078.18,-955.38 1077.94,-929.88 1077.76,-910.43"/>
<polygon fill="black" stroke="black" points="1081.26,-910.31 1077.66,-900.34 1074.26,-910.37 1081.26,-910.31"/>
</g>
<!-- N44 -->
<g id="node40" class="node">
<title>N44</title>
<polygon fill="none" stroke="black" points="1346,-900 1253,-900 1253,-864 1346,-864 1346,-900"/>
<text text-anchor="middle" x="1299.5" y="-878.3" font-family="Times,serif" font-size="14.00">IfThenElse</text>
</g>
<!-- N45 -->
<g id="node46" class="node">
<title>N45</title>
<polygon fill="none" stroke="black" points="1271.5,-792 1185.5,-792 1185.5,-756 1271.5,-756 1271.5,-792"/>
<text text-anchor="middle" x="1228.5" y="-770.3" font-family="Times,serif" font-size="14.00">Condition</text>
</g>
<!-- N44&#45;&gt;N45 -->
<g id="edge41" class="edge">
<title>N44&#45;&gt;N45</title>
<path fill="none" stroke="black" d="M1288.09,-863.97C1276.67,-846.92 1258.95,-820.46 1245.8,-800.82"/>
<polygon fill="black" stroke="black" points="1248.59,-798.7 1240.11,-792.34 1242.77,-802.6 1248.59,-798.7"/>
</g>
<!-- N51 -->
<g id="node50" class="node">
<title>N51</title>
<polygon fill="none" stroke="black" points="1397.5,-792 1343.5,-792 1343.5,-756 1397.5,-756 1397.5,-792"/>
<text text-anchor="middle" x="1370.5" y="-770.3" font-family="Times,serif" font-size="14.00">Then</text>
</g>
<!-- N44&#45;&gt;N51 -->
<g id="edge45" class="edge">
<title>N44&#45;&gt;N51</title>
<path fill="none" stroke="black" d="M1310.91,-863.97C1322.33,-846.92 1340.05,-820.46 1353.2,-800.82"/>
<polygon fill="black" stroke="black" points="1356.23,-802.6 1358.89,-792.34 1350.41,-798.7 1356.23,-802.6"/>
</g>
<!-- N55 -->
<g id="node76" class="node">
<title>N55</title>
<polygon fill="none" stroke="black" points="1595.5,-792 1509.5,-792 1509.5,-756 1595.5,-756 1595.5,-792"/>
<text text-anchor="middle" x="1552.5" y="-770.3" font-family="Times,serif" font-size="14.00">Condition</text>
</g>
<!-- N44&#45;&gt;N55 -->
<g id="edge71" class="edge">
<title>N44&#45;&gt;N55</title>
<path fill="none" stroke="black" d="M1340.15,-863.97C1384.19,-845.52 1454.51,-816.05 1502.05,-796.14"/>
<polygon fill="black" stroke="black" points="1503.66,-799.26 1511.53,-792.16 1500.96,-792.8 1503.66,-799.26"/>
</g>
<!-- N47 -->
<g id="node41" class="node">
<title>N47</title>
<polygon fill="none" stroke="black" points="1124.5,-576 1060.5,-576 1060.5,-540 1124.5,-540 1124.5,-576"/>
<text text-anchor="middle" x="1092.5" y="-554.3" font-family="Times,serif" font-size="14.00">Lvalue</text>
</g>
<!-- N48 -->
<g id="node42" class="node">
<title>N48</title>
<polygon fill="none" stroke="black" points="1119.5,-468 1065.5,-468 1065.5,-432 1119.5,-432 1119.5,-468"/>
<text text-anchor="middle" x="1092.5" y="-446.3" font-family="Times,serif" font-size="14.00">c</text>
</g>
<!-- N47&#45;&gt;N48 -->
<g id="edge36" class="edge">
<title>N47&#45;&gt;N48</title>
<path fill="none" stroke="black" d="M1092.5,-539.97C1092.5,-523.38 1092.5,-497.88 1092.5,-478.43"/>
<polygon fill="black" stroke="black" points="1096,-478.34 1092.5,-468.34 1089,-478.34 1096,-478.34"/>
</g>
<!-- N49 -->
<g id="node43" class="node">
<title>N49</title>
<polygon fill="none" stroke="black" points="1260.5,-576 1196.5,-576 1196.5,-540 1260.5,-540 1260.5,-576"/>
<text text-anchor="middle" x="1228.5" y="-554.3" font-family="Times,serif" font-size="14.00">Lvalue</text>
</g>
<!-- N50 -->
<g id="node44" class="node">
<title>N50</title>
<polygon fill="none" stroke="black" points="1255.5,-468 1201.5,-468 1201.5,-432 1255.5,-432 1255.5,-468"/>
<text text-anchor="middle" x="1228.5" y="-446.3" font-family="Times,serif" font-size="14.00">j</text>
</g>
<!-- N49&#45;&gt;N50 -->
<g id="edge37" class="edge">
<title>N49&#45;&gt;N50</title>
<path fill="none" stroke="black" d="M1228.5,-539.97C1228.5,-523.38 1228.5,-497.88 1228.5,-478.43"/>
<polygon fill="black" stroke="black" points="1232,-478.34 1228.5,-468.34 1225,-478.34 1232,-478.34"/>
</g>
<!-- N46 -->
<g id="node45" class="node">
<title>N46</title>
<polygon fill="none" stroke="black" points="1255.5,-684 1201.5,-684 1201.5,-648 1255.5,-648 1255.5,-684"/>
<text text-anchor="middle" x="1228.5" y="-662.3" font-family="Times,serif" font-size="14.00">=</text>
</g>
<!-- N46&#45;&gt;N47 -->
<g id="edge38" class="edge">
<title>N46&#45;&gt;N47</title>
<path fill="none" stroke="black" d="M1206.65,-647.97C1183.98,-630.3 1148.36,-602.54 1122.94,-582.73"/>
<polygon fill="black" stroke="black" points="1124.79,-579.73 1114.75,-576.34 1120.48,-585.25 1124.79,-579.73"/>
</g>
<!-- N46&#45;&gt;N49 -->
<g id="edge39" class="edge">
<title>N46&#45;&gt;N49</title>
<path fill="none" stroke="black" d="M1228.5,-647.97C1228.5,-631.38 1228.5,-605.88 1228.5,-586.43"/>
<polygon fill="black" stroke="black" points="1232,-586.34 1228.5,-576.34 1225,-586.34 1232,-586.34"/>
</g>
<!-- N45&#45;&gt;N46 -->
<g id="edge40" class="edge">
<title>N45&#45;&gt;N46</title>
<path fill="none" stroke="black" d="M1228.5,-755.97C1228.5,-739.38 1228.5,-713.88 1228.5,-694.43"/>
<polygon fill="black" stroke="black" points="1232,-694.34 1228.5,-684.34 1225,-694.34 1232,-694.34"/>
</g>
<!-- N53 -->
<g id="node47" class="node">
<title>N53</title>
<polygon fill="none" stroke="black" points="1405,-576 1334,-576 1334,-540 1405,-540 1405,-576"/>
<text text-anchor="middle" x="1369.5" y="-554.3" font-family="Times,serif" font-size="14.00">exprlist</text>
</g>
<!-- N54 -->
<g id="node48" class="node">
<title>N54</title>
<polygon fill="none" stroke="black" points="1396.5,-468 1342.5,-468 1342.5,-432 1396.5,-432 1396.5,-468"/>
<text text-anchor="middle" x="1369.5" y="-446.3" font-family="Times,serif" font-size="14.00">1</text>
</g>
<!-- N53&#45;&gt;N54 -->
<g id="edge42" class="edge">
<title>N53&#45;&gt;N54</title>
<path fill="none" stroke="black" d="M1369.5,-539.97C1369.5,-523.38 1369.5,-497.88 1369.5,-478.43"/>
<polygon fill="black" stroke="black" points="1373,-478.34 1369.5,-468.34 1366,-478.34 1373,-478.34"/>
</g>
<!-- N52 -->
<g id="node49" class="node">
<title>N52</title>
<polygon fill="none" stroke="black" points="1402.5,-684 1336.5,-684 1336.5,-648 1402.5,-648 1402.5,-684"/>
<text text-anchor="middle" x="1369.5" y="-662.3" font-family="Times,serif" font-size="14.00">Return</text>
</g>
<!-- N52&#45;&gt;N53 -->
<g id="edge43" class="edge">
<title>N52&#45;&gt;N53</title>
<path fill="none" stroke="black" d="M1369.5,-647.97C1369.5,-631.38 1369.5,-605.88 1369.5,-586.43"/>
<polygon fill="black" stroke="black" points="1373,-586.34 1369.5,-576.34 1366,-586.34 1373,-586.34"/>
</g>
<!-- N51&#45;&gt;N52 -->
<g id="edge44" class="edge">
<title>N51&#45;&gt;N52</title>
<path fill="none" stroke="black" d="M1370.34,-755.97C1370.18,-739.38 1369.94,-713.88 1369.76,-694.43"/>
<polygon fill="black" stroke="black" points="1373.26,-694.31 1369.66,-684.34 1366.26,-694.37 1373.26,-694.31"/>
</g>
<!-- N56 -->
<g id="node51" class="node">
<title>N56</title>
<polygon fill="none" stroke="black" points="1638,-684 1545,-684 1545,-648 1638,-648 1638,-684"/>
<text text-anchor="middle" x="1591.5" y="-662.3" font-family="Times,serif" font-size="14.00">IfThenElse</text>
</g>
<!-- N57 -->
<g id="node57" class="node">
<title>N57</title>
<polygon fill="none" stroke="black" points="1563.5,-576 1477.5,-576 1477.5,-540 1563.5,-540 1563.5,-576"/>
<text text-anchor="middle" x="1520.5" y="-554.3" font-family="Times,serif" font-size="14.00">Condition</text>
</g>
<!-- N56&#45;&gt;N57 -->
<g id="edge51" class="edge">
<title>N56&#45;&gt;N57</title>
<path fill="none" stroke="black" d="M1580.09,-647.97C1568.67,-630.92 1550.95,-604.46 1537.8,-584.82"/>
<polygon fill="black" stroke="black" points="1540.59,-582.7 1532.11,-576.34 1534.77,-586.6 1540.59,-582.7"/>
</g>
<!-- N63 -->
<g id="node61" class="node">
<title>N63</title>
<polygon fill="none" stroke="black" points="1689.5,-576 1635.5,-576 1635.5,-540 1689.5,-540 1689.5,-576"/>
<text text-anchor="middle" x="1662.5" y="-554.3" font-family="Times,serif" font-size="14.00">Then</text>
</g>
<!-- N56&#45;&gt;N63 -->
<g id="edge55" class="edge">
<title>N56&#45;&gt;N63</title>
<path fill="none" stroke="black" d="M1602.91,-647.97C1614.33,-630.92 1632.05,-604.46 1645.2,-584.82"/>
<polygon fill="black" stroke="black" points="1648.23,-586.6 1650.89,-576.34 1642.41,-582.7 1648.23,-586.6"/>
</g>
<!-- N67 -->
<g id="node75" class="node">
<title>N67</title>
<polygon fill="none" stroke="black" points="1851.5,-576 1765.5,-576 1765.5,-540 1851.5,-540 1851.5,-576"/>
<text text-anchor="middle" x="1808.5" y="-554.3" font-family="Times,serif" font-size="14.00">Condition</text>
</g>
<!-- N56&#45;&gt;N67 -->
<g id="edge69" class="edge">
<title>N56&#45;&gt;N67</title>
<path fill="none" stroke="black" d="M1626.36,-647.97C1663.82,-629.67 1723.45,-600.55 1764.2,-580.64"/>
<polygon fill="black" stroke="black" points="1765.91,-583.7 1773.36,-576.16 1762.84,-577.41 1765.91,-583.7"/>
</g>
<!-- N59 -->
<g id="node52" class="node">
<title>N59</title>
<polygon fill="none" stroke="black" points="1416.5,-360 1352.5,-360 1352.5,-324 1416.5,-324 1416.5,-360"/>
<text text-anchor="middle" x="1384.5" y="-338.3" font-family="Times,serif" font-size="14.00">Lvalue</text>
</g>
<!-- N60 -->
<g id="node53" class="node">
<title>N60</title>
<polygon fill="none" stroke="black" points="1411.5,-252 1357.5,-252 1357.5,-216 1411.5,-216 1411.5,-252"/>
<text text-anchor="middle" x="1384.5" y="-230.3" font-family="Times,serif" font-size="14.00">c</text>
</g>
<!-- N59&#45;&gt;N60 -->
<g id="edge46" class="edge">
<title>N59&#45;&gt;N60</title>
<path fill="none" stroke="black" d="M1384.5,-323.97C1384.5,-307.38 1384.5,-281.88 1384.5,-262.43"/>
<polygon fill="black" stroke="black" points="1388,-262.34 1384.5,-252.34 1381,-262.34 1388,-262.34"/>
</g>
<!-- N61 -->
<g id="node54" class="node">
<title>N61</title>
<polygon fill="none" stroke="black" points="1552.5,-360 1488.5,-360 1488.5,-324 1552.5,-324 1552.5,-360"/>
<text text-anchor="middle" x="1520.5" y="-338.3" font-family="Times,serif" font-size="14.00">Lvalue</text>
</g>
<!-- N62 -->
<g id="node55" class="node">
<title>N62</title>
<polygon fill="none" stroke="black" points="1547.5,-252 1493.5,-252 1493.5,-216 1547.5,-216 1547.5,-252"/>
<text text-anchor="middle" x="1520.5" y="-230.3" font-family="Times,serif" font-size="14.00">u</text>
</g>
<!-- N61&#45;&gt;N62 -->
<g id="edge47" class="edge">
<title>N61&#45;&gt;N62</title>
<path fill="none" stroke="black" d="M1520.5,-323.97C1520.5,-307.38 1520.5,-281.88 1520.5,-262.43"/>
<polygon fill="black" stroke="black" points="1524,-262.34 1520.5,-252.34 1517,-262.34 1524,-262.34"/>
</g>
<!-- N58 -->
<g id="node56" class="node">
<title>N58</title>
<polygon fill="none" stroke="black" points="1547.5,-468 1493.5,-468 1493.5,-432 1547.5,-432 1547.5,-468"/>
<text text-anchor="middle" x="1520.5" y="-446.3" font-family="Times,serif" font-size="14.00">=</text>
</g>
<!-- N58&#45;&gt;N59 -->
<g id="edge48" class="edge">
<title>N58&#45;&gt;N59</title>
<path fill="none" stroke="black" d="M1498.65,-431.97C1475.98,-414.3 1440.36,-386.54 1414.94,-366.73"/>
<polygon fill="black" stroke="black" points="1416.79,-363.73 1406.75,-360.34 1412.48,-369.25 1416.79,-363.73"/>
</g>
<!-- N58&#45;&gt;N61 -->
<g id="edge49" class="edge">
<title>N58&#45;&gt;N61</title>
<path fill="none" stroke="black" d="M1520.5,-431.97C1520.5,-415.38 1520.5,-389.88 1520.5,-370.43"/>
<polygon fill="black" stroke="black" points="1524,-370.34 1520.5,-360.34 1517,-370.34 1524,-370.34"/>
</g>
<!-- N57&#45;&gt;N58 -->
<g id="edge50" class="edge">
<title>N57&#45;&gt;N58</title>
<path fill="none" stroke="black" d="M1520.5,-539.97C1520.5,-523.38 1520.5,-497.88 1520.5,-478.43"/>
<polygon fill="black" stroke="black" points="1524,-478.34 1520.5,-468.34 1517,-478.34 1524,-478.34"/>
</g>
<!-- N65 -->
<g id="node58" class="node">
<title>N65</title>
<polygon fill="none" stroke="black" points="1697,-360 1626,-360 1626,-324 1697,-324 1697,-360"/>
<text text-anchor="middle" x="1661.5" y="-338.3" font-family="Times,serif" font-size="14.00">exprlist</text>
</g>
<!-- N66 -->
<g id="node59" class="node">
<title>N66</title>
<polygon fill="none" stroke="black" points="1688.5,-252 1634.5,-252 1634.5,-216 1688.5,-216 1688.5,-252"/>
<text text-anchor="middle" x="1661.5" y="-230.3" font-family="Times,serif" font-size="14.00">1</text>
</g>
<!-- N65&#45;&gt;N66 -->
<g id="edge52" class="edge">
<title>N65&#45;&gt;N66</title>
<path fill="none" stroke="black" d="M1661.5,-323.97C1661.5,-307.38 1661.5,-281.88 1661.5,-262.43"/>
<polygon fill="black" stroke="black" points="1665,-262.34 1661.5,-252.34 1658,-262.34 1665,-262.34"/>
</g>
<!-- N64 -->
<g id="node60" class="node">
<title>N64</title>
<polygon fill="none" stroke="black" points="1694.5,-468 1628.5,-468 1628.5,-432 1694.5,-432 1694.5,-468"/>
<text text-anchor="middle" x="1661.5" y="-446.3" font-family="Times,serif" font-size="14.00">Return</text>
</g>
<!-- N64&#45;&gt;N65 -->
<g id="edge53" class="edge">
<title>N64&#45;&gt;N65</title>
<path fill="none" stroke="black" d="M1661.5,-431.97C1661.5,-415.38 1661.5,-389.88 1661.5,-370.43"/>
<polygon fill="black" stroke="black" points="1665,-370.34 1661.5,-360.34 1658,-370.34 1665,-370.34"/>
</g>
<!-- N63&#45;&gt;N64 -->
<g id="edge54" class="edge">
<title>N63&#45;&gt;N64</title>
<path fill="none" stroke="black" d="M1662.34,-539.97C1662.18,-523.38 1661.94,-497.88 1661.76,-478.43"/>
<polygon fill="black" stroke="black" points="1665.26,-478.31 1661.66,-468.34 1658.26,-478.37 1665.26,-478.31"/>
</g>
<!-- N68 -->
<g id="node62" class="node">
<title>N68</title>
<polygon fill="none" stroke="black" points="1930,-468 1837,-468 1837,-432 1930,-432 1930,-468"/>
<text text-anchor="middle" x="1883.5" y="-446.3" font-family="Times,serif" font-size="14.00">IfThenElse</text>
</g>
<!-- N69 -->
<g id="node68" class="node">
<title>N69</title>
<polygon fill="none" stroke="black" points="1855.5,-360 1769.5,-360 1769.5,-324 1855.5,-324 1855.5,-360"/>
<text text-anchor="middle" x="1812.5" y="-338.3" font-family="Times,serif" font-size="14.00">Condition</text>
</g>
<!-- N68&#45;&gt;N69 -->
<g id="edge61" class="edge">
<title>N68&#45;&gt;N69</title>
<path fill="none" stroke="black" d="M1872.09,-431.97C1860.67,-414.92 1842.95,-388.46 1829.8,-368.82"/>
<polygon fill="black" stroke="black" points="1832.59,-366.7 1824.11,-360.34 1826.77,-370.6 1832.59,-366.7"/>
</g>
<!-- N75 -->
<g id="node72" class="node">
<title>N75</title>
<polygon fill="none" stroke="black" points="1981.5,-360 1927.5,-360 1927.5,-324 1981.5,-324 1981.5,-360"/>
<text text-anchor="middle" x="1954.5" y="-338.3" font-family="Times,serif" font-size="14.00">Then</text>
</g>
<!-- N68&#45;&gt;N75 -->
<g id="edge65" class="edge">
<title>N68&#45;&gt;N75</title>
<path fill="none" stroke="black" d="M1894.91,-431.97C1906.33,-414.92 1924.05,-388.46 1937.2,-368.82"/>
<polygon fill="black" stroke="black" points="1940.23,-370.6 1942.89,-360.34 1934.41,-366.7 1940.23,-370.6"/>
</g>
<!-- N79 -->
<g id="node74" class="node">
<title>N79</title>
<polygon fill="none" stroke="black" points="2139.5,-360 2053.5,-360 2053.5,-324 2139.5,-324 2139.5,-360"/>
<text text-anchor="middle" x="2096.5" y="-338.3" font-family="Times,serif" font-size="14.00">Condition</text>
</g>
<!-- N68&#45;&gt;N79 -->
<g id="edge67" class="edge">
<title>N68&#45;&gt;N79</title>
<path fill="none" stroke="black" d="M1917.72,-431.97C1954.49,-413.67 2013.02,-384.55 2053.02,-364.64"/>
<polygon fill="black" stroke="black" points="2054.62,-367.75 2062.01,-360.16 2051.5,-361.49 2054.62,-367.75"/>
</g>
<!-- N71 -->
<g id="node63" class="node">
<title>N71</title>
<polygon fill="none" stroke="black" points="1709.5,-144 1645.5,-144 1645.5,-108 1709.5,-108 1709.5,-144"/>
<text text-anchor="middle" x="1677.5" y="-122.3" font-family="Times,serif" font-size="14.00">Lvalue</text>
</g>
<!-- N72 -->
<g id="node64" class="node">
<title>N72</title>
<polygon fill="none" stroke="black" points="1704.5,-36 1650.5,-36 1650.5,0 1704.5,0 1704.5,-36"/>
<text text-anchor="middle" x="1677.5" y="-14.3" font-family="Times,serif" font-size="14.00">c</text>
</g>
<!-- N71&#45;&gt;N72 -->
<g id="edge56" class="edge">
<title>N71&#45;&gt;N72</title>
<path fill="none" stroke="black" d="M1677.5,-107.97C1677.5,-91.38 1677.5,-65.88 1677.5,-46.43"/>
<polygon fill="black" stroke="black" points="1681,-46.34 1677.5,-36.34 1674,-46.34 1681,-46.34"/>
</g>
<!-- N73 -->
<g id="node65" class="node">
<title>N73</title>
<polygon fill="none" stroke="black" points="1845.5,-144 1781.5,-144 1781.5,-108 1845.5,-108 1845.5,-144"/>
<text text-anchor="middle" x="1813.5" y="-122.3" font-family="Times,serif" font-size="14.00">Lvalue</text>
</g>
<!-- N74 -->
<g id="node66" class="node">
<title>N74</title>
<polygon fill="none" stroke="black" points="1840.5,-36 1786.5,-36 1786.5,0 1840.5,0 1840.5,-36"/>
<text text-anchor="middle" x="1813.5" y="-14.3" font-family="Times,serif" font-size="14.00">r</text>
</g>
<!-- N73&#45;&gt;N74 -->
<g id="edge57" class="edge">
<title>N73&#45;&gt;N74</title>
<path fill="none" stroke="black" d="M1813.5,-107.97C1813.5,-91.38 1813.5,-65.88 1813.5,-46.43"/>
<polygon fill="black" stroke="black" points="1817,-46.34 1813.5,-36.34 1810,-46.34 1817,-46.34"/>
</g>
<!-- N70 -->
<g id="node67" class="node">
<title>N70</title>
<polygon fill="none" stroke="black" points="1839.5,-252 1785.5,-252 1785.5,-216 1839.5,-216 1839.5,-252"/>
<text text-anchor="middle" x="1812.5" y="-230.3" font-family="Times,serif" font-size="14.00">=</text>
</g>
<!-- N70&#45;&gt;N71 -->
<g id="edge58" class="edge">
<title>N70&#45;&gt;N71</title>
<path fill="none" stroke="black" d="M1790.81,-215.97C1768.31,-198.3 1732.95,-170.54 1707.72,-150.73"/>
<polygon fill="black" stroke="black" points="1709.61,-147.76 1699.58,-144.34 1705.29,-153.27 1709.61,-147.76"/>
</g>
<!-- N70&#45;&gt;N73 -->
<g id="edge59" class="edge">
<title>N70&#45;&gt;N73</title>
<path fill="none" stroke="black" d="M1812.66,-215.97C1812.82,-199.38 1813.06,-173.88 1813.24,-154.43"/>
<polygon fill="black" stroke="black" points="1816.74,-154.37 1813.34,-144.34 1809.74,-154.31 1816.74,-154.37"/>
</g>
<!-- N69&#45;&gt;N70 -->
<g id="edge60" class="edge">
<title>N69&#45;&gt;N70</title>
<path fill="none" stroke="black" d="M1812.5,-323.97C1812.5,-307.38 1812.5,-281.88 1812.5,-262.43"/>
<polygon fill="black" stroke="black" points="1816,-262.34 1812.5,-252.34 1809,-262.34 1816,-262.34"/>
</g>
<!-- N77 -->
<g id="node69" class="node">
<title>N77</title>
<polygon fill="none" stroke="black" points="1990,-144 1919,-144 1919,-108 1990,-108 1990,-144"/>
<text text-anchor="middle" x="1954.5" y="-122.3" font-family="Times,serif" font-size="14.00">exprlist</text>
</g>
<!-- N78 -->
<g id="node70" class="node">
<title>N78</title>
<polygon fill="none" stroke="black" points="1981.5,-36 1927.5,-36 1927.5,0 1981.5,0 1981.5,-36"/>
<text text-anchor="middle" x="1954.5" y="-14.3" font-family="Times,serif" font-size="14.00">1</text>
</g>
<!-- N77&#45;&gt;N78 -->
<g id="edge62" class="edge">
<title>N77&#45;&gt;N78</title>
<path fill="none" stroke="black" d="M1954.5,-107.97C1954.5,-91.38 1954.5,-65.88 1954.5,-46.43"/>
<polygon fill="black" stroke="black" points="1958,-46.34 1954.5,-36.34 1951,-46.34 1958,-46.34"/>
</g>
<!-- N76 -->
<g id="node71" class="node">
<title>N76</title>
<polygon fill="none" stroke="black" points="1987.5,-252 1921.5,-252 1921.5,-216 1987.5,-216 1987.5,-252"/>
<text text-anchor="middle" x="1954.5" y="-230.3" font-family="Times,serif" font-size="14.00">Return</text>
</g>
<!-- N76&#45;&gt;N77 -->
<g id="edge63" class="edge">
<title>N76&#45;&gt;N77</title>
<path fill="none" stroke="black" d="M1954.5,-215.97C1954.5,-199.38 1954.5,-173.88 1954.5,-154.43"/>
<polygon fill="black" stroke="black" points="1958,-154.34 1954.5,-144.34 1951,-154.34 1958,-154.34"/>
</g>
<!-- N75&#45;&gt;N76 -->
<g id="edge64" class="edge">
<title>N75&#45;&gt;N76</title>
<path fill="none" stroke="black" d="M1954.5,-323.97C1954.5,-307.38 1954.5,-281.88 1954.5,-262.43"/>
<polygon fill="black" stroke="black" points="1958,-262.34 1954.5,-252.34 1951,-262.34 1958,-262.34"/>
</g>
<!-- N80 -->
<g id="node73" class="node">
<title>N80</title>
<polygon fill="none" stroke="black" points="2126,-252 2067,-252 2067,-216 2126,-216 2126,-252"/>
<text text-anchor="middle" x="2096.5" y="-230.3" font-family="Times,serif" font-size="14.00">Break</text>
</g>
<!-- N79&#45;&gt;N80 -->
<g id="edge66" class="edge">
<title>N79&#45;&gt;N80</title>
<path fill="none" stroke="black" d="M2096.5,-323.97C2096.5,-307.38 2096.5,-281.88 2096.5,-262.43"/>
<polygon fill="black" stroke="black" points="2100,-262.34 2096.5,-252.34 2093,-262.34 2100,-262.34"/>
</g>
<!-- N67&#45;&gt;N68 -->
<g id="edge68" class="edge">
<title>N67&#45;&gt;N68</title>
<path fill="none" stroke="black" d="M1820.55,-539.97C1832.67,-522.84 1851.5,-496.22 1865.42,-476.56"/>
<polygon fill="black" stroke="black" points="1868.31,-478.53 1871.23,-468.34 1862.6,-474.48 1868.31,-478.53"/>
</g>
<!-- N55&#45;&gt;N56 -->
<g id="edge70" class="edge">
<title>N55&#45;&gt;N56</title>
<path fill="none" stroke="black" d="M1558.77,-755.97C1564.93,-739.22 1574.42,-713.41 1581.61,-693.89"/>
<polygon fill="black" stroke="black" points="1584.95,-694.93 1585.12,-684.34 1578.38,-692.52 1584.95,-694.93"/>
</g>
<!-- N43&#45;&gt;N44 -->
<g id="edge72" class="edge">
<title>N43&#45;&gt;N44</title>
<path fill="none" stroke="black" d="M1266.77,-971.97C1272.93,-955.22 1282.42,-929.41 1289.61,-909.89"/>
<polygon fill="black" stroke="black" points="1292.95,-910.93 1293.12,-900.34 1286.38,-908.52 1292.95,-910.93"/>
</g>
<!-- N31&#45;&gt;N32 -->
<g id="edge74" class="edge">
<title>N31&#45;&gt;N32</title>
<path fill="none" stroke="black" d="M973.93,-1187.97C980.25,-1171.22 989.99,-1145.41 997.35,-1125.89"/>
<polygon fill="black" stroke="black" points="1000.7,-1126.93 1000.96,-1116.34 994.15,-1124.46 1000.7,-1126.93"/>
</g>
<!-- N19&#45;&gt;N20 -->
<g id="edge76" class="edge">
<title>N19&#45;&gt;N20</title>
<path fill="none" stroke="black" d="M648.19,-1403.97C660.96,-1386.84 680.8,-1360.22 695.45,-1340.56"/>
<polygon fill="black" stroke="black" points="698.41,-1342.45 701.58,-1332.34 692.79,-1338.27 698.41,-1342.45"/>
</g>
<!-- N81 -->
<g id="node80" class="node">
<title>N81</title>
<polygon fill="none" stroke="black" points="593,-1764 522,-1764 522,-1728 593,-1728 593,-1764"/>
<text text-anchor="middle" x="557.5" y="-1742.3" font-family="Times,serif" font-size="14.00">exprlist</text>
</g>
<!-- N82 -->
<g id="node81" class="node">
<title>N82</title>
<polygon fill="none" stroke="black" points="664,-1656 565,-1656 565,-1620 664,-1620 664,-1656"/>
<text text-anchor="middle" x="614.5" y="-1634.3" font-family="Times,serif" font-size="14.00">isInBonjour</text>
</g>
<!-- N81&#45;&gt;N82 -->
<g id="edge82" class="edge">
<title>N81&#45;&gt;N82</title>
<path fill="none" stroke="black" d="M566.66,-1727.97C575.74,-1711.07 589.8,-1684.94 600.33,-1665.36"/>
<polygon fill="black" stroke="black" points="603.52,-1666.81 605.18,-1656.34 597.36,-1663.49 603.52,-1666.81"/>
</g>
<!-- N83 -->
<g id="node82" class="node">
<title>N83</title>
<polygon fill="none" stroke="black" points="755,-1548 684,-1548 684,-1512 755,-1512 755,-1548"/>
<text text-anchor="middle" x="719.5" y="-1526.3" font-family="Times,serif" font-size="14.00">exprlist</text>
</g>
<!-- N82&#45;&gt;N83 -->
<g id="edge81" class="edge">
<title>N82&#45;&gt;N83</title>
<path fill="none" stroke="black" d="M631.37,-1619.97C648.64,-1602.53 675.65,-1575.26 695.22,-1555.51"/>
<polygon fill="black" stroke="black" points="697.77,-1557.91 702.32,-1548.34 692.8,-1552.98 697.77,-1557.91"/>
</g>
<!-- N84 -->
<g id="node83" class="node">
<title>N84</title>
<polygon fill="none" stroke="black" points="834.5,-1440 750.5,-1440 750.5,-1404 834.5,-1404 834.5,-1440"/>
<text text-anchor="middle" x="792.5" y="-1418.3" font-family="Times,serif" font-size="14.00">String : g</text>
</g>
<!-- N83&#45;&gt;N84 -->
<g id="edge80" class="edge">
<title>N83&#45;&gt;N84</title>
<path fill="none" stroke="black" d="M731.23,-1511.97C742.97,-1494.92 761.19,-1468.46 774.72,-1448.82"/>
<polygon fill="black" stroke="black" points="777.77,-1450.56 780.56,-1440.34 772,-1446.59 777.77,-1450.56"/>
</g>
<!-- N1 -->
<g id="node84" class="node">
<title>N1</title>
<polygon fill="none" stroke="black" points="454.5,-1872 400.5,-1872 400.5,-1836 454.5,-1836 454.5,-1872"/>
<text text-anchor="middle" x="427.5" y="-1850.3" font-family="Times,serif" font-size="14.00">Let</text>
</g>
<!-- N1&#45;&gt;N2 -->
<g id="edge83" class="edge">
<title>N1&#45;&gt;N2</title>
<path fill="none" stroke="black" d="M415.93,-1835.97C404.35,-1818.92 386.38,-1792.46 373.04,-1772.82"/>
<polygon fill="black" stroke="black" points="375.79,-1770.65 367.28,-1764.34 370,-1774.58 375.79,-1770.65"/>
</g>
<!-- N1&#45;&gt;N81 -->
<g id="edge84" class="edge">
<title>N1&#45;&gt;N81</title>
<path fill="none" stroke="black" d="M448.39,-1835.97C470.05,-1818.3 504.1,-1790.54 528.4,-1770.73"/>
<polygon fill="black" stroke="black" points="530.69,-1773.37 536.23,-1764.34 526.27,-1767.95 530.69,-1773.37"/>
</g>
<!-- N0 -->
<g id="node85" class="node">
<title>N0</title>
<polygon fill="none" stroke="black" points="467,-1980 388,-1980 388,-1944 467,-1944 467,-1980"/>
<text text-anchor="middle" x="427.5" y="-1958.3" font-family="Times,serif" font-size="14.00">Program</text>
</g>
<!-- N0&#45;&gt;N1 -->
<g id="edge85" class="edge">
<title>N0&#45;&gt;N1</title>
<path fill="none" stroke="black" d="M427.5,-1943.97C427.5,-1927.38 427.5,-1901.88 427.5,-1882.43"/>
<polygon fill="black" stroke="black" points="431,-1882.34 427.5,-1872.34 424,-1882.34 431,-1882.34"/>
</g>
</g>
</svg>
