<?xml version="1.0" encoding="UTF-8" standalone="no"?>
<!DOCTYPE svg PUBLIC "-//W3C//DTD SVG 1.1//EN"
 "http://www.w3.org/Graphics/SVG/1.1/DTD/svg11.dtd">
<!-- Generated by graphviz version 2.43.0 (0)
 -->
<!-- Title: ast Pages: 1 -->
<svg width="342pt" height="692pt"
 viewBox="0.00 0.00 341.50 692.00" xmlns="http://www.w3.org/2000/svg" xmlns:xlink="http://www.w3.org/1999/xlink">
<g id="graph0" class="graph" transform="scale(1 1) rotate(0) translate(4 688)">
<title>ast</title>
<polygon fill="white" stroke="transparent" points="-4,4 -4,-688 337.5,-688 337.5,4 -4,4"/>
<!-- N2 -->
<g id="node1" class="node">
<title>N2</title>
<polygon fill="none" stroke="black" points="190.5,-468 115.5,-468 115.5,-432 190.5,-432 190.5,-468"/>
<text text-anchor="middle" x="153" y="-446.3" font-family="Times,serif" font-size="14.00">DeclList</text>
</g>
<!-- N3 -->
<g id="node2" class="node">
<title>N3</title>
<polygon fill="none" stroke="black" points="193.5,-360 112.5,-360 112.5,-324 193.5,-324 193.5,-360"/>
<text text-anchor="middle" x="153" y="-338.3" font-family="Times,serif" font-size="14.00">Funcdecl</text>
</g>
<!-- N2&#45;&gt;N3 -->
<g id="edge6" class="edge">
<title>N2&#45;&gt;N3</title>
<path fill="none" stroke="black" d="M153,-431.97C153,-415.38 153,-389.88 153,-370.43"/>
<polygon fill="black" stroke="black" points="156.5,-370.34 153,-360.34 149.5,-370.34 156.5,-370.34"/>
</g>
<!-- N4 -->
<g id="node3" class="node">
<title>N4</title>
<polygon fill="none" stroke="black" points="54,-252 0,-252 0,-216 54,-216 54,-252"/>
<text text-anchor="middle" x="27" y="-230.3" font-family="Times,serif" font-size="14.00">hello</text>
</g>
<!-- N3&#45;&gt;N4 -->
<g id="edge1" class="edge">
<title>N3&#45;&gt;N4</title>
<path fill="none" stroke="black" d="M132.76,-323.97C111.85,-306.38 79.04,-278.78 55.51,-258.99"/>
<polygon fill="black" stroke="black" points="57.52,-256.1 47.61,-252.34 53.01,-261.46 57.52,-256.1"/>
</g>
<!-- N5 -->
<g id="node5" class="node">
<title>N5</title>
<polygon fill="none" stroke="black" points="180,-252 126,-252 126,-216 180,-216 180,-252"/>
<text text-anchor="middle" x="153" y="-230.3" font-family="Times,serif" font-size="14.00">print</text>
</g>
<!-- N3&#45;&gt;N5 -->
<g id="edge5" class="edge">
<title>N3&#45;&gt;N5</title>
<path fill="none" stroke="black" d="M153,-323.97C153,-307.38 153,-281.88 153,-262.43"/>
<polygon fill="black" stroke="black" points="156.5,-262.34 153,-252.34 149.5,-262.34 156.5,-262.34"/>
</g>
<!-- void -->
<g id="node10" class="node">
<title>void</title>
<ellipse fill="none" stroke="black" cx="283" cy="-234" rx="30.59" ry="18"/>
<text text-anchor="middle" x="283" y="-230.3" font-family="Times,serif" font-size="14.00">void</text>
</g>
<!-- N3&#45;&gt;void -->
<g id="edge2" class="edge">
<title>N3&#45;&gt;void</title>
<path fill="none" stroke="black" d="M173.89,-323.97C196.84,-305.25 233.7,-275.2 258.13,-255.28"/>
<polygon fill="black" stroke="black" points="260.36,-257.97 265.9,-248.94 255.94,-252.55 260.36,-257.97"/>
</g>
<!-- N6 -->
<g id="node4" class="node">
<title>N6</title>
<polygon fill="none" stroke="black" points="182.5,-144 123.5,-144 123.5,-108 182.5,-108 182.5,-144"/>
<text text-anchor="middle" x="153" y="-122.3" font-family="Times,serif" font-size="14.00">string</text>
</g>
<!-- Hello, World! -->
<g id="node11" class="node">
<title>Hello, World!</title>
<ellipse fill="none" stroke="black" cx="153" cy="-18" rx="72.59" ry="18"/>
<text text-anchor="middle" x="153" y="-14.3" font-family="Times,serif" font-size="14.00">Hello, World!</text>
</g>
<!-- N6&#45;&gt;Hello, World! -->
<g id="edge3" class="edge">
<title>N6&#45;&gt;Hello, World!</title>
<path fill="none" stroke="black" d="M153,-107.97C153,-91.38 153,-65.88 153,-46.43"/>
<polygon fill="black" stroke="black" points="156.5,-46.34 153,-36.34 149.5,-46.34 156.5,-46.34"/>
</g>
<!-- N5&#45;&gt;N6 -->
<g id="edge4" class="edge">
<title>N5&#45;&gt;N6</title>
<path fill="none" stroke="black" d="M153,-215.97C153,-199.38 153,-173.88 153,-154.43"/>
<polygon fill="black" stroke="black" points="156.5,-154.34 153,-144.34 149.5,-154.34 156.5,-154.34"/>
</g>
<!-- N7 -->
<g id="node6" class="node">
<title>N7</title>
<polygon fill="none" stroke="black" points="333.5,-468 262.5,-468 262.5,-432 333.5,-432 333.5,-468"/>
<text text-anchor="middle" x="298" y="-446.3" font-family="Times,serif" font-size="14.00">exprlist</text>
</g>
<!-- N8 -->
<g id="node7" class="node">
<title>N8</title>
<polygon fill="none" stroke="black" points="325,-360 271,-360 271,-324 325,-324 325,-360"/>
<text text-anchor="middle" x="298" y="-338.3" font-family="Times,serif" font-size="14.00">hello</text>
</g>
<!-- N7&#45;&gt;N8 -->
<g id="edge7" class="edge">
<title>N7&#45;&gt;N8</title>
<path fill="none" stroke="black" d="M298,-431.97C298,-415.38 298,-389.88 298,-370.43"/>
<polygon fill="black" stroke="black" points="301.5,-370.34 298,-360.34 294.5,-370.34 301.5,-370.34"/>
</g>
<!-- N1 -->
<g id="node8" class="node">
<title>N1</title>
<polygon fill="none" stroke="black" points="252,-576 198,-576 198,-540 252,-540 252,-576"/>
<text text-anchor="middle" x="225" y="-554.3" font-family="Times,serif" font-size="14.00">Let</text>
</g>
<!-- N1&#45;&gt;N2 -->
<g id="edge8" class="edge">
<title>N1&#45;&gt;N2</title>
<path fill="none" stroke="black" d="M213.43,-539.97C201.85,-522.92 183.88,-496.46 170.54,-476.82"/>
<polygon fill="black" stroke="black" points="173.29,-474.65 164.78,-468.34 167.5,-478.58 173.29,-474.65"/>
</g>
<!-- N1&#45;&gt;N7 -->
<g id="edge9" class="edge">
<title>N1&#45;&gt;N7</title>
<path fill="none" stroke="black" d="M236.73,-539.97C248.47,-522.92 266.69,-496.46 280.22,-476.82"/>
<polygon fill="black" stroke="black" points="283.27,-478.56 286.06,-468.34 277.5,-474.59 283.27,-478.56"/>
</g>
<!-- N0 -->
<g id="node9" class="node">
<title>N0</title>
<polygon fill="none" stroke="black" points="264.5,-684 185.5,-684 185.5,-648 264.5,-648 264.5,-684"/>
<text text-anchor="middle" x="225" y="-662.3" font-family="Times,serif" font-size="14.00">Program</text>
</g>
<!-- N0&#45;&gt;N1 -->
<g id="edge10" class="edge">
<title>N0&#45;&gt;N1</title>
<path fill="none" stroke="black" d="M225,-647.97C225,-631.38 225,-605.88 225,-586.43"/>
<polygon fill="black" stroke="black" points="228.5,-586.34 225,-576.34 221.5,-586.34 228.5,-586.34"/>
</g>
</g>
</svg>
