<?xml version="1.0" encoding="UTF-8" standalone="no"?>
<!DOCTYPE svg PUBLIC "-//W3C//DTD SVG 1.1//EN"
 "http://www.w3.org/Graphics/SVG/1.1/DTD/svg11.dtd">
<!-- Generated by graphviz version 2.43.0 (0)
 -->
<!-- Title: ast Pages: 1 -->
<svg width="1973pt" height="908pt"
 viewBox="0.00 0.00 1972.89 908.00" xmlns="http://www.w3.org/2000/svg" xmlns:xlink="http://www.w3.org/1999/xlink">
<g id="graph0" class="graph" transform="scale(1 1) rotate(0) translate(4 904)">
<title>ast</title>
<polygon fill="white" stroke="transparent" points="-4,4 -4,-904 1968.89,-904 1968.89,4 -4,4"/>
<!-- N2 -->
<g id="node1" class="node">
<title>N2</title>
<polygon fill="none" stroke="black" points="378.5,-684 303.5,-684 303.5,-648 378.5,-648 378.5,-684"/>
<text text-anchor="middle" x="341" y="-662.3" font-family="Times,serif" font-size="14.00">DeclList</text>
</g>
<!-- N3 -->
<g id="node4" class="node">
<title>N3</title>
<polygon fill="none" stroke="black" points="189,-576 117,-576 117,-540 189,-540 189,-576"/>
<text text-anchor="middle" x="153" y="-554.3" font-family="Times,serif" font-size="14.00">VarDecl</text>
</g>
<!-- N2&#45;&gt;N3 -->
<g id="edge3" class="edge">
<title>N2&#45;&gt;N3</title>
<path fill="none" stroke="black" d="M310.79,-647.97C278.68,-629.86 227.77,-601.16 192.5,-581.27"/>
<polygon fill="black" stroke="black" points="193.87,-578.03 183.44,-576.16 190.43,-584.12 193.87,-578.03"/>
</g>
<!-- N6 -->
<g id="node7" class="node">
<title>N6</title>
<polygon fill="none" stroke="black" points="377,-576 305,-576 305,-540 377,-540 377,-576"/>
<text text-anchor="middle" x="341" y="-554.3" font-family="Times,serif" font-size="14.00">VarDecl</text>
</g>
<!-- N2&#45;&gt;N6 -->
<g id="edge6" class="edge">
<title>N2&#45;&gt;N6</title>
<path fill="none" stroke="black" d="M341,-647.97C341,-631.38 341,-605.88 341,-586.43"/>
<polygon fill="black" stroke="black" points="344.5,-586.34 341,-576.34 337.5,-586.34 344.5,-586.34"/>
</g>
<!-- N4 -->
<g id="node2" class="node">
<title>N4</title>
<polygon fill="none" stroke="black" points="54,-468 0,-468 0,-432 54,-432 54,-468"/>
<text text-anchor="middle" x="27" y="-446.3" font-family="Times,serif" font-size="14.00">10</text>
</g>
<!-- N5 -->
<g id="node3" class="node">
<title>N5</title>
<polygon fill="none" stroke="black" points="180,-468 126,-468 126,-432 180,-432 180,-468"/>
<text text-anchor="middle" x="153" y="-446.3" font-family="Times,serif" font-size="14.00">x</text>
</g>
<!-- N3&#45;&gt;N4 -->
<g id="edge2" class="edge">
<title>N3&#45;&gt;N4</title>
<path fill="none" stroke="black" d="M132.76,-539.97C111.85,-522.38 79.04,-494.78 55.51,-474.99"/>
<polygon fill="black" stroke="black" points="57.52,-472.1 47.61,-468.34 53.01,-477.46 57.52,-472.1"/>
</g>
<!-- N3&#45;&gt;N5 -->
<g id="edge1" class="edge">
<title>N3&#45;&gt;N5</title>
<path fill="none" stroke="black" d="M153,-539.97C153,-523.38 153,-497.88 153,-478.43"/>
<polygon fill="black" stroke="black" points="156.5,-478.34 153,-468.34 149.5,-478.34 156.5,-478.34"/>
</g>
<!-- N7 -->
<g id="node5" class="node">
<title>N7</title>
<polygon fill="none" stroke="black" points="306,-468 252,-468 252,-432 306,-432 306,-468"/>
<text text-anchor="middle" x="279" y="-446.3" font-family="Times,serif" font-size="14.00">0</text>
</g>
<!-- N8 -->
<g id="node6" class="node">
<title>N8</title>
<polygon fill="none" stroke="black" points="432,-468 378,-468 378,-432 432,-432 432,-468"/>
<text text-anchor="middle" x="405" y="-446.3" font-family="Times,serif" font-size="14.00">y</text>
</g>
<!-- N6&#45;&gt;N7 -->
<g id="edge5" class="edge">
<title>N6&#45;&gt;N7</title>
<path fill="none" stroke="black" d="M331.04,-539.97C321.11,-522.99 305.73,-496.7 294.26,-477.09"/>
<polygon fill="black" stroke="black" points="297.21,-475.21 289.14,-468.34 291.17,-478.74 297.21,-475.21"/>
</g>
<!-- N6&#45;&gt;N8 -->
<g id="edge4" class="edge">
<title>N6&#45;&gt;N8</title>
<path fill="none" stroke="black" d="M351.28,-539.97C361.53,-522.99 377.41,-496.7 389.25,-477.09"/>
<polygon fill="black" stroke="black" points="392.36,-478.71 394.53,-468.34 386.37,-475.09 392.36,-478.71"/>
</g>
<!-- N9 -->
<g id="node8" class="node">
<title>N9</title>
<polygon fill="none" stroke="black" points="543.5,-684 472.5,-684 472.5,-648 543.5,-648 543.5,-684"/>
<text text-anchor="middle" x="508" y="-662.3" font-family="Times,serif" font-size="14.00">exprlist</text>
</g>
<!-- N10 -->
<g id="node41" class="node">
<title>N10</title>
<polygon fill="none" stroke="black" points="559.5,-576 502.5,-576 502.5,-540 559.5,-540 559.5,-576"/>
<text text-anchor="middle" x="531" y="-554.3" font-family="Times,serif" font-size="14.00">While</text>
</g>
<!-- N9&#45;&gt;N10 -->
<g id="edge40" class="edge">
<title>N9&#45;&gt;N10</title>
<path fill="none" stroke="black" d="M511.7,-647.97C515.31,-631.3 520.88,-605.65 525.11,-586.16"/>
<polygon fill="black" stroke="black" points="528.54,-586.86 527.24,-576.34 521.7,-585.37 528.54,-586.86"/>
</g>
<!-- N12 -->
<g id="node9" class="node">
<title>N12</title>
<polygon fill="none" stroke="black" points="432,-360 368,-360 368,-324 432,-324 432,-360"/>
<text text-anchor="middle" x="400" y="-338.3" font-family="Times,serif" font-size="14.00">Lvalue</text>
</g>
<!-- N13 -->
<g id="node10" class="node">
<title>N13</title>
<polygon fill="none" stroke="black" points="427,-252 373,-252 373,-216 427,-216 427,-252"/>
<text text-anchor="middle" x="400" y="-230.3" font-family="Times,serif" font-size="14.00">x</text>
</g>
<!-- N12&#45;&gt;N13 -->
<g id="edge7" class="edge">
<title>N12&#45;&gt;N13</title>
<path fill="none" stroke="black" d="M400,-323.97C400,-307.38 400,-281.88 400,-262.43"/>
<polygon fill="black" stroke="black" points="403.5,-262.34 400,-252.34 396.5,-262.34 403.5,-262.34"/>
</g>
<!-- N14 -->
<g id="node11" class="node">
<title>N14</title>
<polygon fill="none" stroke="black" points="558,-360 504,-360 504,-324 558,-324 558,-360"/>
<text text-anchor="middle" x="531" y="-338.3" font-family="Times,serif" font-size="14.00">0</text>
</g>
<!-- N11 -->
<g id="node12" class="node">
<title>N11</title>
<polygon fill="none" stroke="black" points="558,-468 504,-468 504,-432 558,-432 558,-468"/>
<text text-anchor="middle" x="531" y="-446.3" font-family="Times,serif" font-size="14.00">&lt;&gt;</text>
</g>
<!-- N11&#45;&gt;N12 -->
<g id="edge8" class="edge">
<title>N11&#45;&gt;N12</title>
<path fill="none" stroke="black" d="M509.95,-431.97C488.12,-414.3 453.81,-386.54 429.32,-366.73"/>
<polygon fill="black" stroke="black" points="431.41,-363.91 421.43,-360.34 427,-369.35 431.41,-363.91"/>
</g>
<!-- N11&#45;&gt;N14 -->
<g id="edge9" class="edge">
<title>N11&#45;&gt;N14</title>
<path fill="none" stroke="black" d="M531,-431.97C531,-415.38 531,-389.88 531,-370.43"/>
<polygon fill="black" stroke="black" points="534.5,-370.34 531,-360.34 527.5,-370.34 534.5,-370.34"/>
</g>
<!-- N15 -->
<g id="node13" class="node">
<title>N15</title>
<polygon fill="none" stroke="black" points="929.5,-468 858.5,-468 858.5,-432 929.5,-432 929.5,-468"/>
<text text-anchor="middle" x="894" y="-446.3" font-family="Times,serif" font-size="14.00">exprlist</text>
</g>
<!-- N16 -->
<g id="node14" class="node">
<title>N16</title>
<polygon fill="none" stroke="black" points="708,-360 630,-360 630,-324 708,-324 708,-360"/>
<text text-anchor="middle" x="669" y="-338.3" font-family="Times,serif" font-size="14.00">print_int</text>
</g>
<!-- N15&#45;&gt;N16 -->
<g id="edge13" class="edge">
<title>N15&#45;&gt;N16</title>
<path fill="none" stroke="black" d="M858.35,-432.2C819.41,-413.86 756.94,-384.43 714.5,-364.43"/>
<polygon fill="black" stroke="black" points="715.77,-361.16 705.23,-360.07 712.78,-367.5 715.77,-361.16"/>
</g>
<!-- N20 -->
<g id="node18" class="node">
<title>N20</title>
<polygon fill="none" stroke="black" points="865.5,-360 780.5,-360 780.5,-324 865.5,-324 865.5,-360"/>
<text text-anchor="middle" x="823" y="-338.3" font-family="Times,serif" font-size="14.00">print_line</text>
</g>
<!-- N15&#45;&gt;N20 -->
<g id="edge14" class="edge">
<title>N15&#45;&gt;N20</title>
<path fill="none" stroke="black" d="M882.59,-431.97C871.17,-414.92 853.45,-388.46 840.3,-368.82"/>
<polygon fill="black" stroke="black" points="843.09,-366.7 834.61,-360.34 837.27,-370.6 843.09,-366.7"/>
</g>
<!-- N21 -->
<g id="node25" class="node">
<title>N21</title>
<polygon fill="none" stroke="black" points="994.5,-360 937.5,-360 937.5,-324 994.5,-324 994.5,-360"/>
<text text-anchor="middle" x="966" y="-338.3" font-family="Times,serif" font-size="14.00">affect</text>
</g>
<!-- N15&#45;&gt;N21 -->
<g id="edge21" class="edge">
<title>N15&#45;&gt;N21</title>
<path fill="none" stroke="black" d="M905.57,-431.97C917.15,-414.92 935.12,-388.46 948.46,-368.82"/>
<polygon fill="black" stroke="black" points="951.5,-370.58 954.22,-360.34 945.71,-366.65 951.5,-370.58"/>
</g>
<!-- N28 -->
<g id="node32" class="node">
<title>N28</title>
<polygon fill="none" stroke="black" points="1154.5,-360 1097.5,-360 1097.5,-324 1154.5,-324 1154.5,-360"/>
<text text-anchor="middle" x="1126" y="-338.3" font-family="Times,serif" font-size="14.00">affect</text>
</g>
<!-- N15&#45;&gt;N28 -->
<g id="edge28" class="edge">
<title>N15&#45;&gt;N28</title>
<path fill="none" stroke="black" d="M929.74,-432.67C972.61,-413.08 1044.16,-380.39 1088,-360.36"/>
<polygon fill="black" stroke="black" points="1089.54,-363.51 1097.18,-356.17 1086.63,-357.14 1089.54,-363.51"/>
</g>
<!-- N35 -->
<g id="node40" class="node">
<title>N35</title>
<polygon fill="none" stroke="black" points="1603,-360 1541,-360 1541,-324 1603,-324 1603,-360"/>
<text text-anchor="middle" x="1572" y="-338.3" font-family="Times,serif" font-size="14.00">IfThen</text>
</g>
<!-- N15&#45;&gt;N35 -->
<g id="edge37" class="edge">
<title>N15&#45;&gt;N35</title>
<path fill="none" stroke="black" d="M929.97,-443.38C1045.69,-425.28 1407.91,-368.65 1530.76,-349.45"/>
<polygon fill="black" stroke="black" points="1531.55,-352.87 1540.89,-347.86 1530.46,-345.95 1531.55,-352.87"/>
</g>
<!-- N17 -->
<g id="node15" class="node">
<title>N17</title>
<polygon fill="none" stroke="black" points="657.5,-252 586.5,-252 586.5,-216 657.5,-216 657.5,-252"/>
<text text-anchor="middle" x="622" y="-230.3" font-family="Times,serif" font-size="14.00">exprlist</text>
</g>
<!-- N16&#45;&gt;N17 -->
<g id="edge12" class="edge">
<title>N16&#45;&gt;N17</title>
<path fill="none" stroke="black" d="M661.45,-323.97C653.99,-307.15 642.47,-281.17 633.8,-261.62"/>
<polygon fill="black" stroke="black" points="636.94,-260.06 629.69,-252.34 630.54,-262.9 636.94,-260.06"/>
</g>
<!-- N18 -->
<g id="node16" class="node">
<title>N18</title>
<polygon fill="none" stroke="black" points="639,-144 575,-144 575,-108 639,-108 639,-144"/>
<text text-anchor="middle" x="607" y="-122.3" font-family="Times,serif" font-size="14.00">Lvalue</text>
</g>
<!-- N17&#45;&gt;N18 -->
<g id="edge11" class="edge">
<title>N17&#45;&gt;N18</title>
<path fill="none" stroke="black" d="M619.59,-215.97C617.24,-199.38 613.63,-173.88 610.88,-154.43"/>
<polygon fill="black" stroke="black" points="614.32,-153.75 609.45,-144.34 607.39,-154.73 614.32,-153.75"/>
</g>
<!-- N19 -->
<g id="node17" class="node">
<title>N19</title>
<polygon fill="none" stroke="black" points="634,-36 580,-36 580,0 634,0 634,-36"/>
<text text-anchor="middle" x="607" y="-14.3" font-family="Times,serif" font-size="14.00">x</text>
</g>
<!-- N18&#45;&gt;N19 -->
<g id="edge10" class="edge">
<title>N18&#45;&gt;N19</title>
<path fill="none" stroke="black" d="M607,-107.97C607,-91.38 607,-65.88 607,-46.43"/>
<polygon fill="black" stroke="black" points="610.5,-46.34 607,-36.34 603.5,-46.34 610.5,-46.34"/>
</g>
<!-- N22 -->
<g id="node19" class="node">
<title>N22</title>
<polygon fill="none" stroke="black" points="809,-252 745,-252 745,-216 809,-216 809,-252"/>
<text text-anchor="middle" x="777" y="-230.3" font-family="Times,serif" font-size="14.00">Lvalue</text>
</g>
<!-- N23 -->
<g id="node20" class="node">
<title>N23</title>
<polygon fill="none" stroke="black" points="765,-144 711,-144 711,-108 765,-108 765,-144"/>
<text text-anchor="middle" x="738" y="-122.3" font-family="Times,serif" font-size="14.00">x</text>
</g>
<!-- N22&#45;&gt;N23 -->
<g id="edge15" class="edge">
<title>N22&#45;&gt;N23</title>
<path fill="none" stroke="black" d="M770.73,-215.97C764.57,-199.22 755.08,-173.41 747.89,-153.89"/>
<polygon fill="black" stroke="black" points="751.12,-152.52 744.38,-144.34 744.55,-154.93 751.12,-152.52"/>
</g>
<!-- N25 -->
<g id="node21" class="node">
<title>N25</title>
<polygon fill="none" stroke="black" points="901,-144 837,-144 837,-108 901,-108 901,-144"/>
<text text-anchor="middle" x="869" y="-122.3" font-family="Times,serif" font-size="14.00">Lvalue</text>
</g>
<!-- N26 -->
<g id="node22" class="node">
<title>N26</title>
<polygon fill="none" stroke="black" points="896,-36 842,-36 842,0 896,0 896,-36"/>
<text text-anchor="middle" x="869" y="-14.3" font-family="Times,serif" font-size="14.00">x</text>
</g>
<!-- N25&#45;&gt;N26 -->
<g id="edge16" class="edge">
<title>N25&#45;&gt;N26</title>
<path fill="none" stroke="black" d="M869,-107.97C869,-91.38 869,-65.88 869,-46.43"/>
<polygon fill="black" stroke="black" points="872.5,-46.34 869,-36.34 865.5,-46.34 872.5,-46.34"/>
</g>
<!-- N27 -->
<g id="node23" class="node">
<title>N27</title>
<polygon fill="none" stroke="black" points="1027,-144 973,-144 973,-108 1027,-108 1027,-144"/>
<text text-anchor="middle" x="1000" y="-122.3" font-family="Times,serif" font-size="14.00">1</text>
</g>
<!-- N24 -->
<g id="node24" class="node">
<title>N24</title>
<polygon fill="none" stroke="black" points="993,-252 939,-252 939,-216 993,-216 993,-252"/>
<text text-anchor="middle" x="966" y="-230.3" font-family="Times,serif" font-size="14.00">&#45;</text>
</g>
<!-- N24&#45;&gt;N25 -->
<g id="edge17" class="edge">
<title>N24&#45;&gt;N25</title>
<path fill="none" stroke="black" d="M950.42,-215.97C934.53,-198.61 909.72,-171.5 891.67,-151.77"/>
<polygon fill="black" stroke="black" points="894.2,-149.36 884.87,-144.34 889.04,-154.08 894.2,-149.36"/>
</g>
<!-- N24&#45;&gt;N27 -->
<g id="edge18" class="edge">
<title>N24&#45;&gt;N27</title>
<path fill="none" stroke="black" d="M971.46,-215.97C976.83,-199.22 985.11,-173.41 991.37,-153.89"/>
<polygon fill="black" stroke="black" points="994.72,-154.93 994.44,-144.34 988.05,-152.79 994.72,-154.93"/>
</g>
<!-- N21&#45;&gt;N22 -->
<g id="edge19" class="edge">
<title>N21&#45;&gt;N22</title>
<path fill="none" stroke="black" d="M937.29,-324.9C905.02,-306.8 852.43,-277.3 816.34,-257.06"/>
<polygon fill="black" stroke="black" points="817.98,-253.97 807.54,-252.13 814.55,-260.08 817.98,-253.97"/>
</g>
<!-- N21&#45;&gt;N24 -->
<g id="edge20" class="edge">
<title>N21&#45;&gt;N24</title>
<path fill="none" stroke="black" d="M966,-323.97C966,-307.38 966,-281.88 966,-262.43"/>
<polygon fill="black" stroke="black" points="969.5,-262.34 966,-252.34 962.5,-262.34 969.5,-262.34"/>
</g>
<!-- N29 -->
<g id="node26" class="node">
<title>N29</title>
<polygon fill="none" stroke="black" points="1158,-252 1094,-252 1094,-216 1158,-216 1158,-252"/>
<text text-anchor="middle" x="1126" y="-230.3" font-family="Times,serif" font-size="14.00">Lvalue</text>
</g>
<!-- N30 -->
<g id="node27" class="node">
<title>N30</title>
<polygon fill="none" stroke="black" points="1153,-144 1099,-144 1099,-108 1153,-108 1153,-144"/>
<text text-anchor="middle" x="1126" y="-122.3" font-family="Times,serif" font-size="14.00">y</text>
</g>
<!-- N29&#45;&gt;N30 -->
<g id="edge22" class="edge">
<title>N29&#45;&gt;N30</title>
<path fill="none" stroke="black" d="M1126,-215.97C1126,-199.38 1126,-173.88 1126,-154.43"/>
<polygon fill="black" stroke="black" points="1129.5,-154.34 1126,-144.34 1122.5,-154.34 1129.5,-154.34"/>
</g>
<!-- N32 -->
<g id="node28" class="node">
<title>N32</title>
<polygon fill="none" stroke="black" points="1289,-144 1225,-144 1225,-108 1289,-108 1289,-144"/>
<text text-anchor="middle" x="1257" y="-122.3" font-family="Times,serif" font-size="14.00">Lvalue</text>
</g>
<!-- N33 -->
<g id="node29" class="node">
<title>N33</title>
<polygon fill="none" stroke="black" points="1284,-36 1230,-36 1230,0 1284,0 1284,-36"/>
<text text-anchor="middle" x="1257" y="-14.3" font-family="Times,serif" font-size="14.00">y</text>
</g>
<!-- N32&#45;&gt;N33 -->
<g id="edge23" class="edge">
<title>N32&#45;&gt;N33</title>
<path fill="none" stroke="black" d="M1257,-107.97C1257,-91.38 1257,-65.88 1257,-46.43"/>
<polygon fill="black" stroke="black" points="1260.5,-46.34 1257,-36.34 1253.5,-46.34 1260.5,-46.34"/>
</g>
<!-- N34 -->
<g id="node30" class="node">
<title>N34</title>
<polygon fill="none" stroke="black" points="1415,-144 1361,-144 1361,-108 1415,-108 1415,-144"/>
<text text-anchor="middle" x="1388" y="-122.3" font-family="Times,serif" font-size="14.00">2</text>
</g>
<!-- N31 -->
<g id="node31" class="node">
<title>N31</title>
<polygon fill="none" stroke="black" points="1284,-252 1230,-252 1230,-216 1284,-216 1284,-252"/>
<text text-anchor="middle" x="1257" y="-230.3" font-family="Times,serif" font-size="14.00">+</text>
</g>
<!-- N31&#45;&gt;N32 -->
<g id="edge24" class="edge">
<title>N31&#45;&gt;N32</title>
<path fill="none" stroke="black" d="M1257,-215.97C1257,-199.38 1257,-173.88 1257,-154.43"/>
<polygon fill="black" stroke="black" points="1260.5,-154.34 1257,-144.34 1253.5,-154.34 1260.5,-154.34"/>
</g>
<!-- N31&#45;&gt;N34 -->
<g id="edge25" class="edge">
<title>N31&#45;&gt;N34</title>
<path fill="none" stroke="black" d="M1278.05,-215.97C1299.88,-198.3 1334.19,-170.54 1358.68,-150.73"/>
<polygon fill="black" stroke="black" points="1361,-153.35 1366.57,-144.34 1356.59,-147.91 1361,-153.35"/>
</g>
<!-- N28&#45;&gt;N29 -->
<g id="edge26" class="edge">
<title>N28&#45;&gt;N29</title>
<path fill="none" stroke="black" d="M1126,-323.97C1126,-307.38 1126,-281.88 1126,-262.43"/>
<polygon fill="black" stroke="black" points="1129.5,-262.34 1126,-252.34 1122.5,-262.34 1129.5,-262.34"/>
</g>
<!-- N28&#45;&gt;N31 -->
<g id="edge27" class="edge">
<title>N28&#45;&gt;N31</title>
<path fill="none" stroke="black" d="M1147.05,-323.97C1168.88,-306.3 1203.19,-278.54 1227.68,-258.73"/>
<polygon fill="black" stroke="black" points="1230,-261.35 1235.57,-252.34 1225.59,-255.91 1230,-261.35"/>
</g>
<!-- N37 -->
<g id="node33" class="node">
<title>N37</title>
<polygon fill="none" stroke="black" points="1551,-144 1487,-144 1487,-108 1551,-108 1551,-144"/>
<text text-anchor="middle" x="1519" y="-122.3" font-family="Times,serif" font-size="14.00">Lvalue</text>
</g>
<!-- N38 -->
<g id="node34" class="node">
<title>N38</title>
<polygon fill="none" stroke="black" points="1546,-36 1492,-36 1492,0 1546,0 1546,-36"/>
<text text-anchor="middle" x="1519" y="-14.3" font-family="Times,serif" font-size="14.00">y</text>
</g>
<!-- N37&#45;&gt;N38 -->
<g id="edge29" class="edge">
<title>N37&#45;&gt;N38</title>
<path fill="none" stroke="black" d="M1519,-107.97C1519,-91.38 1519,-65.88 1519,-46.43"/>
<polygon fill="black" stroke="black" points="1522.5,-46.34 1519,-36.34 1515.5,-46.34 1522.5,-46.34"/>
</g>
<!-- N39 -->
<g id="node35" class="node">
<title>N39</title>
<polygon fill="none" stroke="black" points="1687,-144 1623,-144 1623,-108 1687,-108 1687,-144"/>
<text text-anchor="middle" x="1655" y="-122.3" font-family="Times,serif" font-size="14.00">Lvalue</text>
</g>
<!-- N40 -->
<g id="node36" class="node">
<title>N40</title>
<polygon fill="none" stroke="black" points="1677,-36 1623,-36 1623,0 1677,0 1677,-36"/>
<text text-anchor="middle" x="1650" y="-14.3" font-family="Times,serif" font-size="14.00">x</text>
</g>
<!-- N39&#45;&gt;N40 -->
<g id="edge30" class="edge">
<title>N39&#45;&gt;N40</title>
<path fill="none" stroke="black" d="M1654.2,-107.97C1653.41,-91.38 1652.21,-65.88 1651.29,-46.43"/>
<polygon fill="black" stroke="black" points="1654.79,-46.16 1650.82,-36.34 1647.79,-46.49 1654.79,-46.16"/>
</g>
<!-- N36 -->
<g id="node37" class="node">
<title>N36</title>
<polygon fill="none" stroke="black" points="1599,-252 1545,-252 1545,-216 1599,-216 1599,-252"/>
<text text-anchor="middle" x="1572" y="-230.3" font-family="Times,serif" font-size="14.00">&gt;</text>
</g>
<!-- N36&#45;&gt;N37 -->
<g id="edge31" class="edge">
<title>N36&#45;&gt;N37</title>
<path fill="none" stroke="black" d="M1563.48,-215.97C1555.04,-199.07 1541.97,-172.94 1532.18,-153.36"/>
<polygon fill="black" stroke="black" points="1535.27,-151.72 1527.67,-144.34 1529.01,-154.85 1535.27,-151.72"/>
</g>
<!-- N36&#45;&gt;N39 -->
<g id="edge32" class="edge">
<title>N36&#45;&gt;N39</title>
<path fill="none" stroke="black" d="M1585.34,-215.97C1598.81,-198.76 1619.78,-171.98 1635.19,-152.29"/>
<polygon fill="black" stroke="black" points="1638.01,-154.37 1641.42,-144.34 1632.5,-150.06 1638.01,-154.37"/>
</g>
<!-- N42 -->
<g id="node38" class="node">
<title>N42</title>
<polygon fill="none" stroke="black" points="1860.5,-144 1801.5,-144 1801.5,-108 1860.5,-108 1860.5,-144"/>
<text text-anchor="middle" x="1831" y="-122.3" font-family="Times,serif" font-size="14.00">string</text>
</g>
<!-- y augmente ouloulou -->
<g id="node44" class="node">
<title>y augmente ouloulou</title>
<ellipse fill="none" stroke="black" cx="1857" cy="-18" rx="107.78" ry="18"/>
<text text-anchor="middle" x="1857" y="-14.3" font-family="Times,serif" font-size="14.00">y augmente ouloulou</text>
</g>
<!-- N42&#45;&gt;y augmente ouloulou -->
<g id="edge33" class="edge">
<title>N42&#45;&gt;y augmente ouloulou</title>
<path fill="none" stroke="black" d="M1835.18,-107.97C1839.29,-91.2 1845.63,-65.34 1850.42,-45.81"/>
<polygon fill="black" stroke="black" points="1853.85,-46.53 1852.83,-35.99 1847.05,-44.87 1853.85,-46.53"/>
</g>
<!-- N41 -->
<g id="node39" class="node">
<title>N41</title>
<polygon fill="none" stroke="black" points="1831,-252 1777,-252 1777,-216 1831,-216 1831,-252"/>
<text text-anchor="middle" x="1804" y="-230.3" font-family="Times,serif" font-size="14.00">print</text>
</g>
<!-- N41&#45;&gt;N42 -->
<g id="edge34" class="edge">
<title>N41&#45;&gt;N42</title>
<path fill="none" stroke="black" d="M1808.34,-215.97C1812.58,-199.3 1819.12,-173.65 1824.08,-154.16"/>
<polygon fill="black" stroke="black" points="1827.51,-154.9 1826.58,-144.34 1820.72,-153.17 1827.51,-154.9"/>
</g>
<!-- N35&#45;&gt;N36 -->
<g id="edge35" class="edge">
<title>N35&#45;&gt;N36</title>
<path fill="none" stroke="black" d="M1572,-323.97C1572,-307.38 1572,-281.88 1572,-262.43"/>
<polygon fill="black" stroke="black" points="1575.5,-262.34 1572,-252.34 1568.5,-262.34 1575.5,-262.34"/>
</g>
<!-- N35&#45;&gt;N41 -->
<g id="edge36" class="edge">
<title>N35&#45;&gt;N41</title>
<path fill="none" stroke="black" d="M1603.29,-326.7C1646.01,-307.18 1722.45,-272.26 1767.66,-251.6"/>
<polygon fill="black" stroke="black" points="1769.17,-254.76 1776.81,-247.42 1766.26,-248.4 1769.17,-254.76"/>
</g>
<!-- N10&#45;&gt;N11 -->
<g id="edge38" class="edge">
<title>N10&#45;&gt;N11</title>
<path fill="none" stroke="black" d="M531,-539.97C531,-523.38 531,-497.88 531,-478.43"/>
<polygon fill="black" stroke="black" points="534.5,-478.34 531,-468.34 527.5,-478.34 534.5,-478.34"/>
</g>
<!-- N10&#45;&gt;N15 -->
<g id="edge39" class="edge">
<title>N10&#45;&gt;N15</title>
<path fill="none" stroke="black" d="M559.79,-548.59C622.7,-530.22 772.85,-486.38 848.62,-464.25"/>
<polygon fill="black" stroke="black" points="849.74,-467.57 858.36,-461.41 847.78,-460.85 849.74,-467.57"/>
</g>
<!-- N1 -->
<g id="node42" class="node">
<title>N1</title>
<polygon fill="none" stroke="black" points="440,-792 386,-792 386,-756 440,-756 440,-792"/>
<text text-anchor="middle" x="413" y="-770.3" font-family="Times,serif" font-size="14.00">Let</text>
</g>
<!-- N1&#45;&gt;N2 -->
<g id="edge41" class="edge">
<title>N1&#45;&gt;N2</title>
<path fill="none" stroke="black" d="M401.43,-755.97C389.85,-738.92 371.88,-712.46 358.54,-692.82"/>
<polygon fill="black" stroke="black" points="361.29,-690.65 352.78,-684.34 355.5,-694.58 361.29,-690.65"/>
</g>
<!-- N1&#45;&gt;N9 -->
<g id="edge42" class="edge">
<title>N1&#45;&gt;N9</title>
<path fill="none" stroke="black" d="M428.26,-755.97C443.75,-738.69 467.9,-711.74 485.57,-692.03"/>
<polygon fill="black" stroke="black" points="488.39,-694.12 492.46,-684.34 483.18,-689.45 488.39,-694.12"/>
</g>
<!-- N0 -->
<g id="node43" class="node">
<title>N0</title>
<polygon fill="none" stroke="black" points="452.5,-900 373.5,-900 373.5,-864 452.5,-864 452.5,-900"/>
<text text-anchor="middle" x="413" y="-878.3" font-family="Times,serif" font-size="14.00">Program</text>
</g>
<!-- N0&#45;&gt;N1 -->
<g id="edge43" class="edge">
<title>N0&#45;&gt;N1</title>
<path fill="none" stroke="black" d="M413,-863.97C413,-847.38 413,-821.88 413,-802.43"/>
<polygon fill="black" stroke="black" points="416.5,-802.34 413,-792.34 409.5,-802.34 416.5,-802.34"/>
</g>
</g>
</svg>
